<?xml version="1.0" encoding="UTF-8" standalone="no"?>
<!-- Created with Inkscape (http://www.inkscape.org/) -->

<svg
   xmlns:dc="http://purl.org/dc/elements/1.1/"
   xmlns:cc="http://creativecommons.org/ns#"
   xmlns:rdf="http://www.w3.org/1999/02/22-rdf-syntax-ns#"
   xmlns:svg="http://www.w3.org/2000/svg"
   xmlns="http://www.w3.org/2000/svg"
   xmlns:sodipodi="http://sodipodi.sourceforge.net/DTD/sodipodi-0.dtd"
   xmlns:inkscape="http://www.inkscape.org/namespaces/inkscape"
   width="210mm"
   height="297mm"
   viewBox="0 0 210 297"
   version="1.1"
   id="svg8"
   inkscape:version="0.92.4 (5da689c313, 2019-01-14)"
   sodipodi:docname="computers by logo.svg">
  <defs
     id="defs2" />
  <sodipodi:namedview
     id="base"
     pagecolor="#ffffff"
     bordercolor="#666666"
     borderopacity="1.0"
     inkscape:pageopacity="0.0"
     inkscape:pageshadow="2"
     inkscape:zoom="1.979899"
     inkscape:cx="249.37708"
     inkscape:cy="1031.2093"
     inkscape:document-units="mm"
     inkscape:current-layer="layer1"
     showgrid="false"
     inkscape:window-width="1920"
     inkscape:window-height="1009"
     inkscape:window-x="1912"
     inkscape:window-y="-8"
     inkscape:window-maximized="1" />
  <metadata
     id="metadata5">
    <rdf:RDF>
      <cc:Work
         rdf:about="">
        <dc:format>image/svg+xml</dc:format>
        <dc:type
           rdf:resource="http://purl.org/dc/dcmitype/StillImage" />
        <dc:title />
      </cc:Work>
    </rdf:RDF>
  </metadata>
  <g
     inkscape:label="Layer 1"
     inkscape:groupmode="layer"
     id="layer1">
    <path
       inkscape:connector-curvature="0"
       id="path1113"
       style="font-style:normal;font-variant:normal;font-weight:normal;font-stretch:normal;font-size:6.14145947px;line-height:1;font-family:'Motter Tektura';-inkscape-font-specification:'Motter Tektura';font-variant-ligatures:normal;font-variant-caps:normal;font-variant-numeric:normal;font-feature-settings:normal;text-align:start;letter-spacing:0px;word-spacing:0px;writing-mode:lr-tb;text-anchor:start;fill:#ff0000;fill-opacity:1;stroke:none;stroke-width:0.2878809"
       d="m 52.360615,20.779795 v -0.767682 h -0.773824 q -0.33778,0 -0.565014,-0.227234 -0.227234,-0.227234 -0.227234,-0.565015 0,-0.343921 0.221092,-0.571155 0.227234,-0.233376 0.558873,-0.233376 l 0.792248,0.0061 -0.0061,-0.779966 h -0.786107 q -0.644853,0 -1.09318,0.46061 -0.448326,0.460609 -0.448326,1.117745 0,0.657137 0.442185,1.111605 0.448326,0.448326 1.105463,0.448326 z" />
    <path
       inkscape:connector-curvature="0"
       id="path1115"
       style="font-style:normal;font-variant:normal;font-weight:normal;font-stretch:normal;font-size:6.14145947px;line-height:1;font-family:'Motter Tektura';-inkscape-font-specification:'Motter Tektura';font-variant-ligatures:normal;font-variant-caps:normal;font-variant-numeric:normal;font-feature-settings:normal;text-align:start;letter-spacing:0px;word-spacing:0px;writing-mode:lr-tb;text-anchor:start;fill:#ff0000;fill-opacity:1;stroke:none;stroke-width:0.2878809"
       d="m 56.115637,19.219864 q 0,-0.657136 -0.454468,-1.111604 -0.454468,-0.454468 -1.111604,-0.454468 -0.657136,0 -1.111604,0.454468 -0.454468,0.454468 -0.454468,1.111604 0,0.657137 0.448327,1.111605 0.454468,0.448326 1.117745,0.448326 0.657136,0 1.111604,-0.448326 0.454468,-0.448327 0.454468,-1.111605 z m -0.779965,-0.03071 0.01842,0.03071 q 0,0.343922 -0.233375,0.577298 -0.227234,0.227234 -0.571156,0.227234 -0.33778,0 -0.571155,-0.233376 -0.233376,-0.233375 -0.233376,-0.571156 0,-0.33778 0.233376,-0.571155 0.233375,-0.233376 0.571155,-0.233376 0.337781,0 0.558873,0.227234 0.227234,0.221093 0.227234,0.54659 z" />
    <path
       inkscape:connector-curvature="0"
       id="path1117"
       style="font-style:normal;font-variant:normal;font-weight:normal;font-stretch:normal;font-size:6.14145947px;line-height:1;font-family:'Motter Tektura';-inkscape-font-specification:'Motter Tektura';font-variant-ligatures:normal;font-variant-caps:normal;font-variant-numeric:normal;font-feature-settings:normal;text-align:start;letter-spacing:0px;word-spacing:0px;writing-mode:lr-tb;text-anchor:start;fill:#ff0000;fill-opacity:1;stroke:none;stroke-width:0.2878809"
       d="m 56.786208,20.779795 h 0.761541 v -2.35832 h 0.522024 q 0.227234,0 0.380771,0.153536 0.159677,0.147395 0.159677,0.368488 v 1.836296 h 0.7554 v -1.836296 q 0,-0.534307 -0.374629,-0.908936 -0.374629,-0.374629 -0.921219,-0.374629 l -1.283565,-0.0061 z m 2.591696,-3.126003 v 0.7554 l 0.5036,0.01228 q 0.227234,0 0.38077,0.153536 0.153537,0.153537 0.153537,0.368488 v 1.836296 h 0.779965 v -1.836296 q 0,-0.540449 -0.380771,-0.908936 -0.374629,-0.374629 -0.921218,-0.374629 z" />
    <path
       inkscape:connector-curvature="0"
       id="path1119"
       style="font-style:normal;font-variant:normal;font-weight:normal;font-stretch:normal;font-size:6.14145947px;line-height:1;font-family:'Motter Tektura';-inkscape-font-specification:'Motter Tektura';font-variant-ligatures:normal;font-variant-caps:normal;font-variant-numeric:normal;font-feature-settings:normal;text-align:start;letter-spacing:0px;word-spacing:0px;writing-mode:lr-tb;text-anchor:start;fill:#ff0000;fill-opacity:1;stroke:none;stroke-width:0.2878809"
       d="m 61.932079,21.565902 0.773824,0.0061 v -3.175134 h 0.779965 q 0.356205,0.03071 0.589581,0.264083 0.239516,0.227234 0.239516,0.558872 0,0.337781 -0.233375,0.571156 -0.233375,0.233376 -0.583439,0.233376 h -0.503599 v 0.755399 h 0.503599 q 0.663278,0 1.117746,-0.448326 0.460609,-0.454468 0.460609,-1.111605 0,-0.663277 -0.460609,-1.117745 -0.454468,-0.46061 -1.130029,-0.46061 h -1.553789 z" />
    <path
       inkscape:connector-curvature="0"
       id="path1121"
       style="font-style:normal;font-variant:normal;font-weight:normal;font-stretch:normal;font-size:6.14145947px;line-height:1;font-family:'Motter Tektura';-inkscape-font-specification:'Motter Tektura';font-variant-ligatures:normal;font-variant-caps:normal;font-variant-numeric:normal;font-feature-settings:normal;text-align:start;letter-spacing:0px;word-spacing:0px;writing-mode:lr-tb;text-anchor:start;fill:#ff0000;fill-opacity:1;stroke:none;stroke-width:0.2878809"
       d="m 68.60871,17.653792 -0.767683,0.0061 v 2.364462 h -0.804531 q -0.214951,0 -0.368488,-0.159678 -0.153536,-0.159678 -0.153536,-0.393054 l -0.0061,-1.81173 h -0.755399 v 1.81173 q 0,0.552732 0.368487,0.933502 0.374629,0.374629 0.915078,0.374629 h 1.572214 z" />
    <path
       inkscape:connector-curvature="0"
       id="path1123"
       style="font-style:normal;font-variant:normal;font-weight:normal;font-stretch:normal;font-size:6.14145947px;line-height:1;font-family:'Motter Tektura';-inkscape-font-specification:'Motter Tektura';font-variant-ligatures:normal;font-variant-caps:normal;font-variant-numeric:normal;font-feature-settings:normal;text-align:start;letter-spacing:0px;word-spacing:0px;writing-mode:lr-tb;text-anchor:start;fill:#ff0000;fill-opacity:1;stroke:none;stroke-width:0.2878809"
       d="m 70.016448,16.855403 h -0.7554 v 2.603978 q 0,0.552732 0.368488,0.939644 0.374629,0.38077 0.915077,0.38077 h 0.786107 v -0.755399 h -0.786107 q -0.221092,0 -0.368487,-0.159678 -0.147395,-0.159678 -0.147395,-0.393054 v -1.050189 h 1.30813 v -0.761541 h -1.30813 z" />
    <path
       inkscape:connector-curvature="0"
       id="path1125"
       style="font-style:normal;font-variant:normal;font-weight:normal;font-stretch:normal;font-size:6.14145947px;line-height:1;font-family:'Motter Tektura';-inkscape-font-specification:'Motter Tektura';font-variant-ligatures:normal;font-variant-caps:normal;font-variant-numeric:normal;font-feature-settings:normal;text-align:start;letter-spacing:0px;word-spacing:0px;writing-mode:lr-tb;text-anchor:start;fill:#ff0000;fill-opacity:1;stroke:none;stroke-width:0.2878809"
       d="m 75.073651,20.779795 0.0061,-0.755399 h -1.578355 q -0.325498,0 -0.552732,-0.233376 -0.227234,-0.233375 -0.227234,-0.571156 0,-0.343921 0.221093,-0.571155 0.227234,-0.233376 0.558873,-0.233376 l 0.792248,0.0061 -0.761541,1.314272 h 0.761541 l 0.779965,-1.326555 v -0.767683 l -1.566072,0.01228 q -0.650995,0 -1.099321,0.454468 -0.448327,0.454468 -0.448327,1.111604 0,0.657137 0.442185,1.111605 0.448327,0.448326 1.105463,0.448326 z" />
    <path
       inkscape:connector-curvature="0"
       id="path1127"
       style="font-style:normal;font-variant:normal;font-weight:normal;font-stretch:normal;font-size:6.14145947px;line-height:1;font-family:'Motter Tektura';-inkscape-font-specification:'Motter Tektura';font-variant-ligatures:normal;font-variant-caps:normal;font-variant-numeric:normal;font-feature-settings:normal;text-align:start;letter-spacing:0px;word-spacing:0px;writing-mode:lr-tb;text-anchor:start;fill:#ff0000;fill-opacity:1;stroke:none;stroke-width:0.2878809"
       d="m 75.750363,20.779795 h 0.779966 v -1.965267 q 0,-0.165819 0.110546,-0.276366 0.116688,-0.116687 0.282507,-0.116687 h 0.657136 v -0.761541 h -0.657136 q -0.472892,0 -0.804531,0.331639 -0.325498,0.325497 -0.368488,0.816814 z" />
    <path
       inkscape:connector-curvature="0"
       id="path1129"
       style="font-style:normal;font-variant:normal;font-weight:normal;font-stretch:normal;font-size:6.14145947px;line-height:1;font-family:'Motter Tektura';-inkscape-font-specification:'Motter Tektura';font-variant-ligatures:normal;font-variant-caps:normal;font-variant-numeric:normal;font-feature-settings:normal;text-align:start;letter-spacing:0px;word-spacing:0px;writing-mode:lr-tb;text-anchor:start;fill:#ff0000;fill-opacity:1;stroke:none;stroke-width:0.2878809"
       d="m 78.19735,21.565902 0.0061,-0.7554 h 0.761541 q 0.233375,0 0.393053,-0.159678 0.159678,-0.159677 0.159678,-0.393053 0,-0.264083 -0.33778,-0.583439 -0.479034,-0.454468 -0.63257,-0.693985 -0.343922,-0.540448 -0.343922,-1.320413 h 0.761541 q 0,0.657136 0.33778,1.123887 l 0.626429,0.67556 q 0.343922,0.380771 0.343922,0.79839 0,0.552731 -0.380771,0.933502 -0.38077,0.38077 -0.92736,0.38077 z" />
    <path
       inkscape:connector-curvature="0"
       id="path1131"
       style="font-style:normal;font-variant:normal;font-weight:normal;font-stretch:normal;font-size:6.14145947px;line-height:1;font-family:'Motter Tektura';-inkscape-font-specification:'Motter Tektura';font-variant-ligatures:normal;font-variant-caps:normal;font-variant-numeric:normal;font-feature-settings:normal;text-align:start;letter-spacing:0px;word-spacing:0px;writing-mode:lr-tb;text-anchor:start;fill:#ff0000;fill-opacity:1;stroke:none;stroke-width:0.2878809"
       d="m 82.647511,16.873827 h 0.7554 l 0.0061,3.150569 h 0.792249 q 0.343921,0 0.577297,-0.233376 0.233375,-0.233375 0.233375,-0.571156 0,-0.33778 -0.233375,-0.571155 -0.233376,-0.233376 -0.577297,-0.233376 l -0.5036,0.0061 -0.01228,-0.779966 h 0.5036 q 0.669419,0 1.123887,0.46061 0.460609,0.454468 0.460609,1.117745 0,0.663278 -0.454468,1.111605 -0.454468,0.448326 -1.117745,0.448326 h -1.547648 z" />
    <path
       inkscape:connector-curvature="0"
       id="path1133"
       style="font-style:normal;font-variant:normal;font-weight:normal;font-stretch:normal;font-size:6.14145947px;line-height:1;font-family:'Motter Tektura';-inkscape-font-specification:'Motter Tektura';font-variant-ligatures:normal;font-variant-caps:normal;font-variant-numeric:normal;font-feature-settings:normal;text-align:start;letter-spacing:0px;word-spacing:0px;writing-mode:lr-tb;text-anchor:start;fill:#ff0000;fill-opacity:1;stroke:none;stroke-width:0.2878809"
       d="m 87.18106,17.647651 -0.743117,-0.0061 1.056331,3.138286 h 0.675561 l 0.0737,-0.09212 z m 0.565014,3.893685 0.767683,-0.0061 q 1.338838,-2.352179 1.338838,-3.052306 0,-0.485175 -0.485175,-0.650994 -0.479034,-0.171961 -1.609063,-0.171961 v 0.761541 q 0.614146,0 0.730834,0.01228 0.522024,0.05527 0.522024,0.429902 0,0.307073 -0.29479,0.921219 -0.288649,0.608004 -0.970351,1.756457 z" />
    <path
       inkscape:connector-curvature="0"
       id="path1135"
       style="font-style:normal;font-variant:normal;font-weight:normal;font-stretch:normal;font-size:6.14145947px;line-height:1;font-family:'Motter Tektura';-inkscape-font-specification:'Motter Tektura';font-variant-ligatures:normal;font-variant-caps:normal;font-variant-numeric:normal;font-feature-settings:normal;text-align:start;letter-spacing:0px;word-spacing:0px;writing-mode:lr-tb;text-anchor:start;fill:#ff0000;fill-opacity:1;stroke:none;stroke-width:0.2878809"
       d="m 92.29152,20.779795 h 0.761541 l -0.0061,-3.15671 h 0.902794 q 0.515883,0 0.865946,0.343922 0.350063,0.343921 0.350063,0.859804 0,0.5036 -0.350063,0.847521 -0.343922,0.337781 -0.865946,0.337781 h -0.620287 l 0.01228,0.767682 h 0.730833 q 0.773824,0 1.326555,-0.565014 0.558873,-0.571156 0.558873,-1.38797 0,-0.816814 -0.558873,-1.381828 -0.552731,-0.571156 -1.326555,-0.571156 H 92.29152 Z" />
    <path
       inkscape:connector-curvature="0"
       id="path1137"
       style="font-style:normal;font-variant:normal;font-weight:normal;font-stretch:normal;font-size:6.14145947px;line-height:1;font-family:'Motter Tektura';-inkscape-font-specification:'Motter Tektura';font-variant-ligatures:normal;font-variant-caps:normal;font-variant-numeric:normal;font-feature-settings:normal;text-align:start;letter-spacing:0px;word-spacing:0px;writing-mode:lr-tb;text-anchor:start;fill:#ff0000;fill-opacity:1;stroke:none;stroke-width:0.2878809"
       d="m 99.76558,19.219864 q 0,-0.657136 -0.454468,-1.111604 -0.454468,-0.454468 -1.111604,-0.454468 -0.657136,0 -1.111604,0.454468 -0.454468,0.454468 -0.454468,1.111604 0,0.657137 0.448326,1.111605 0.454468,0.448326 1.117746,0.448326 0.657136,0 1.111604,-0.448326 0.454468,-0.448327 0.454468,-1.111605 z m -0.779965,-0.03071 0.01842,0.03071 q 0,0.343922 -0.233376,0.577298 -0.227234,0.227234 -0.571155,0.227234 -0.337781,0 -0.571156,-0.233376 -0.233375,-0.233375 -0.233375,-0.571156 0,-0.33778 0.233375,-0.571155 0.233375,-0.233376 0.571156,-0.233376 0.33778,0 0.558873,0.227234 0.227234,0.221093 0.227234,0.54659 z" />
    <path
       inkscape:connector-curvature="0"
       id="path1139"
       style="font-style:normal;font-variant:normal;font-weight:normal;font-stretch:normal;font-size:6.14145947px;line-height:1;font-family:'Motter Tektura';-inkscape-font-specification:'Motter Tektura';font-variant-ligatures:normal;font-variant-caps:normal;font-variant-numeric:normal;font-feature-settings:normal;text-align:start;letter-spacing:0px;word-spacing:0px;writing-mode:lr-tb;text-anchor:start;fill:#ff0000;fill-opacity:1;stroke:none;stroke-width:0.2878809"
       d="m 100.43615,21.565902 0.006,-0.7554 h 0.76154 q 0.23338,0 0.39306,-0.159678 0.15967,-0.159677 0.15967,-0.393053 0,-0.264083 -0.33778,-0.583439 -0.47903,-0.454468 -0.63257,-0.693985 -0.34392,-0.540448 -0.34392,-1.320413 h 0.76154 q 0,0.657136 0.33778,1.123887 l 0.62643,0.67556 q 0.34392,0.380771 0.34392,0.79839 0,0.552731 -0.38077,0.933502 -0.38077,0.38077 -0.92736,0.38077 z" />
    <path
       inkscape:connector-curvature="0"
       id="path1141"
       style="font-style:normal;font-variant:normal;font-weight:normal;font-stretch:normal;font-size:6.14145947px;line-height:1;font-family:'Motter Tektura';-inkscape-font-specification:'Motter Tektura';font-variant-ligatures:normal;font-variant-caps:normal;font-variant-numeric:normal;font-feature-settings:normal;text-align:start;letter-spacing:0px;word-spacing:0px;writing-mode:lr-tb;text-anchor:start;fill:#ff0000;fill-opacity:1;stroke:none;stroke-width:0.2878809"
       d="m 103.13503,21.565902 0.76769,0.0061 v -2.100379 h 2.35832 v -0.761541 h -2.35832 v -0.288648 q 0,-0.331639 0.22723,-0.558873 0.22723,-0.227234 0.55887,-0.227234 h 1.57222 v -0.761541 h -1.57222 q -0.65099,0 -1.09932,0.448326 -0.44833,0.448327 -0.44833,1.099322 z" />
    <path
       inkscape:connector-curvature="0"
       id="path1143"
       style="font-style:normal;font-variant:normal;font-weight:normal;font-stretch:normal;font-size:6.14145947px;line-height:1;font-family:'Motter Tektura';-inkscape-font-specification:'Motter Tektura';font-variant-ligatures:normal;font-variant-caps:normal;font-variant-numeric:normal;font-feature-settings:normal;text-align:start;letter-spacing:0px;word-spacing:0px;writing-mode:lr-tb;text-anchor:start;fill:#ff0000;fill-opacity:1;stroke:none;stroke-width:0.2878809"
       d="m 110.05732,19.219864 q 0,-0.657136 -0.45446,-1.111604 -0.45447,-0.454468 -1.11161,-0.454468 -0.65713,0 -1.1116,0.454468 -0.45447,0.454468 -0.45447,1.111604 0,0.657137 0.44833,1.111605 0.45446,0.448326 1.11774,0.448326 0.65714,0 1.11161,-0.448326 0.45446,-0.448327 0.45446,-1.111605 z m -0.77996,-0.03071 0.0184,0.03071 q 0,0.343922 -0.23337,0.577298 -0.22724,0.227234 -0.57116,0.227234 -0.33778,0 -0.57115,-0.233376 -0.23338,-0.233375 -0.23338,-0.571156 0,-0.33778 0.23338,-0.571155 0.23337,-0.233376 0.57115,-0.233376 0.33778,0 0.55887,0.227234 0.22724,0.221093 0.22724,0.54659 z" />
    <path
       inkscape:connector-curvature="0"
       id="path1145"
       style="font-style:normal;font-variant:normal;font-weight:normal;font-stretch:normal;font-size:6.14145947px;line-height:1;font-family:'Motter Tektura';-inkscape-font-specification:'Motter Tektura';font-variant-ligatures:normal;font-variant-caps:normal;font-variant-numeric:normal;font-feature-settings:normal;text-align:start;letter-spacing:0px;word-spacing:0px;writing-mode:lr-tb;text-anchor:start;fill:#ff0000;fill-opacity:1;stroke:none;stroke-width:0.2878809"
       d="m 110.72789,17.653792 v 0.743117 q 0.51589,0 0.81068,0.245658 0.27022,0.227234 0.27022,0.552732 0,0.331638 -0.28251,0.577297 -0.2825,0.239517 -0.79839,0.239517 v 0.767682 q 0.88437,0 1.43711,-0.724692 0.23337,0.38077 0.58343,0.552731 0.35621,0.171961 0.84138,0.171961 v -0.767682 q -0.49745,0 -0.76768,-0.214951 -0.26408,-0.221093 -0.26408,-0.534307 0,-0.307073 0.25794,-0.552732 0.28865,-0.270224 0.77382,-0.331639 v -0.724692 q -0.46675,0 -0.82909,0.171961 -0.36235,0.16582 -0.60801,0.540449 -0.27636,-0.356205 -0.62028,-0.534307 -0.34393,-0.178103 -0.80454,-0.178103 z" />
    <path
       inkscape:connector-curvature="0"
       d="m 47.363647,17.43302 -0.6035,-0.1122 c -0.01472,-0.003 -0.0308,-0.0165 -0.03568,-0.0307 l -0.184998,-0.4316 c -0.0069,-0.0134 -0.0056,-0.0342 0.003,-0.0467 l 0.351657,-0.51255 c 0.0084,-0.0124 0.0068,-0.031 -0.0039,-0.0417 l -0.439188,-0.43918 c -0.01057,-0.0106 -0.02936,-0.0124 -0.04165,-0.004 l -0.52148,0.35789 c -0.01238,0.008 -0.03351,0.01 -0.04688,0.003 l -0.418322,-0.17127 c -0.01418,-0.004 -0.02809,-0.0206 -0.0308,-0.0353 L 45.27574,15.34452 c -0.0027,-0.0147 -0.01725,-0.0267 -0.03216,-0.0267 h -0.621205 c -0.0149,0 -0.02945,0.012 -0.03216,0.0267 l -0.116166,0.62419 c -0.0028,0.0147 -0.01662,0.0306 -0.0308,0.0353 l -0.418412,0.17127 c -0.01346,0.007 -0.0346,0.005 -0.04688,-0.003 l -0.52148,-0.35789 c -0.01238,-0.009 -0.03116,-0.007 -0.04174,0.004 l -0.439188,0.439179 c -0.01057,0.0105 -0.01238,0.0293 -0.0039,0.0417 l 0.351658,0.512551 c 0.0084,0.0124 0.0098,0.0333 0.0029,0.0467 l -0.184997,0.4316 c -0.0049,0.0142 -0.02096,0.028 -0.03568,0.0307 l -0.6035,0.1122 c -0.01472,0.003 -0.02674,0.0172 -0.02674,0.0323 v 0.621109 c 0,0.015 0.0121,0.0295 0.02683,0.0323 l 0.588686,0.10957 c 0.01472,0.003 0.03044,0.0168 0.03495,0.031 l 0.183823,0.45906 c 0.0066,0.0135 0.005,0.0345 -0.0035,0.0469 l -0.334405,0.48725 c -0.0084,0.0124 -0.0067,0.0312 0.0039,0.0417 l 0.439278,0.43918 c 0.01057,0.0106 0.02936,0.0123 0.04174,0.004 l 0.478663,-0.32854 c 0.01238,-0.008 0.03297,-0.009 0.04589,-0.001 l 0.211102,0.11273 c 0.01337,0.007 0.029,10e-4 0.03469,-0.0127 l 0.435213,-1.051714 c 0.0058,-0.0138 0,-0.0315 -0.01274,-0.0393 l -0.05284,-0.0323 c -0.0098,-0.006 -0.02304,-0.0162 -0.03342,-0.0256 -0.190598,-0.122031 -0.316971,-0.33548 -0.316971,-0.57856 0,-0.37939 0.307576,-0.68688 0.686875,-0.68688 0.379299,0 0.686876,0.30758 0.686876,0.68688 0,0.24308 -0.126374,0.456619 -0.316971,0.57856 -0.0103,0.009 -0.02357,0.0196 -0.03333,0.0256 l -0.05284,0.0323 c -0.01274,0.008 -0.01852,0.0255 -0.01274,0.0393 l 0.435215,1.05172 c 0.0057,0.0138 0.02132,0.0196 0.03469,0.0127 l 0.211103,-0.11273 c 0.01291,-0.007 0.03351,-0.007 0.04589,10e-4 l 0.478663,0.32854 c 0.01238,0.008 0.03116,0.007 0.04164,-0.004 l 0.439279,-0.43918 c 0.01057,-0.0106 0.01238,-0.0295 0.0039,-0.0417 l -0.334405,-0.48725 c -0.0084,-0.0124 -0.01003,-0.0334 -0.0035,-0.0469 l 0.183823,-0.45906 c 0.0045,-0.0143 0.02014,-0.0282 0.03496,-0.031 l 0.588686,-0.10957 c 0.01472,-0.003 0.02674,-0.0172 0.02674,-0.0323 V 17.46532 c 8.9e-5,-0.015 -0.01193,-0.0295 -0.02665,-0.0323"
       id="path1455"
       style="fill:none;stroke:#000000;stroke-width:0.13229169;stroke-miterlimit:4;stroke-dasharray:none;stroke-opacity:1" />
    <rect
       style="opacity:1;fill:none;fill-opacity:1;stroke:#000000;stroke-width:0.13229169;stroke-linecap:butt;stroke-linejoin:miter;stroke-miterlimit:4;stroke-dasharray:none;stroke-dashoffset:0;stroke-opacity:1"
       id="rect1535"
       width="8.8457899"
       height="1.383855"
       x="40.320278"
       y="23.608694" />
    <path
       style="fill:none;stroke:#000000;stroke-width:0.13229169;stroke-linecap:butt;stroke-linejoin:miter;stroke-miterlimit:4;stroke-dasharray:none;stroke-opacity:1"
       d="m 40.187669,23.54313 c 0,-9.76749 0,-9.76749 0,-9.76749"
       id="path1539"
       inkscape:connector-curvature="0"
       sodipodi:nodetypes="cc" />
    <path
       style="fill:none;stroke:#000000;stroke-width:0.13229169;stroke-linecap:butt;stroke-linejoin:miter;stroke-miterlimit:4;stroke-dasharray:none;stroke-opacity:1"
       d="m 49.298194,23.55365 -0.01137,-9.77781"
       id="path1539-4"
       inkscape:connector-curvature="0"
       sodipodi:nodetypes="cc" />
    <path
       style="fill:none;stroke:#000000;stroke-width:0.13229169;stroke-linecap:butt;stroke-linejoin:miter;stroke-miterlimit:4;stroke-dasharray:none;stroke-opacity:1"
       d="m 41.616235,20.44907 h 6.466239"
       id="path1539-0"
       inkscape:connector-curvature="0"
       sodipodi:nodetypes="cc" />
    <path
       style="fill:none;stroke:#000000;stroke-width:0.13229169;stroke-linecap:butt;stroke-linejoin:miter;stroke-miterlimit:4;stroke-dasharray:none;stroke-opacity:1"
       d="M 49.092059,13.57144 H 40.383401"
       id="path1539-6-4-4"
       inkscape:connector-curvature="0"
       sodipodi:nodetypes="cc" />
    <rect
       style="opacity:1;fill:none;fill-opacity:1;stroke:#000000;stroke-width:0.13229169;stroke-linecap:butt;stroke-linejoin:miter;stroke-miterlimit:4;stroke-dasharray:none;stroke-dashoffset:0;stroke-opacity:1"
       id="rect1616"
       width="0.060248751"
       height="0.066590726"
       x="40.288223"
       y="13.673177" />
    <rect
       style="opacity:1;fill:none;fill-opacity:1;stroke:#000000;stroke-width:0.13229169;stroke-linecap:butt;stroke-linejoin:miter;stroke-miterlimit:4;stroke-dasharray:none;stroke-dashoffset:0;stroke-opacity:1"
       id="rect1616-6"
       width="0.060248751"
       height="0.066590726"
       x="49.127453"
       y="13.672963" />
    <rect
       style="opacity:1;fill:none;fill-opacity:1;stroke:#000000;stroke-width:0.13229169;stroke-linecap:butt;stroke-linejoin:miter;stroke-miterlimit:4;stroke-dasharray:none;stroke-dashoffset:0;stroke-opacity:1"
       id="rect1616-8"
       width="2.0971131"
       height="0.01970786"
       x="45.78791"
       y="21.686972" />
    <rect
       style="opacity:1;fill:none;fill-opacity:1;stroke:#000000;stroke-width:0.13229169;stroke-linecap:butt;stroke-linejoin:miter;stroke-miterlimit:4;stroke-dasharray:none;stroke-dashoffset:0;stroke-opacity:1"
       id="rect1616-8-3"
       width="0.33017787"
       height="0.17100173"
       x="47.988895"
       y="24.253716" />
    <path
       style="fill:none;stroke:#000000;stroke-width:0.13229169;stroke-linecap:butt;stroke-linejoin:miter;stroke-miterlimit:4;stroke-dasharray:none;stroke-opacity:1"
       d="m 41.615824,14.68731 h 6.466239"
       id="path1539-0-3"
       inkscape:connector-curvature="0"
       sodipodi:nodetypes="cc" />
    <path
       style="fill:none;stroke:#000000;stroke-width:0.13229169;stroke-linecap:butt;stroke-linejoin:miter;stroke-miterlimit:4;stroke-dasharray:none;stroke-opacity:1"
       d="M 48.148315,20.37753 V 14.75861"
       id="path1539-6-6"
       inkscape:connector-curvature="0"
       sodipodi:nodetypes="cc" />
    <path
       style="fill:none;stroke:#000000;stroke-width:0.13229169;stroke-linecap:butt;stroke-linejoin:miter;stroke-miterlimit:4;stroke-dasharray:none;stroke-opacity:1"
       d="M 41.549231,20.37454 V 14.75562"
       id="path1539-6-6-7"
       inkscape:connector-curvature="0"
       sodipodi:nodetypes="cc" />
  </g>
</svg>
