<?xml version="1.0" encoding="UTF-8" standalone="no"?>
<!-- Created with Inkscape (http://www.inkscape.org/) -->

<svg
   xmlns:dc="http://purl.org/dc/elements/1.1/"
   xmlns:cc="http://creativecommons.org/ns#"
   xmlns:rdf="http://www.w3.org/1999/02/22-rdf-syntax-ns#"
   xmlns:svg="http://www.w3.org/2000/svg"
   xmlns="http://www.w3.org/2000/svg"
   xmlns:sodipodi="http://sodipodi.sourceforge.net/DTD/sodipodi-0.dtd"
   xmlns:inkscape="http://www.inkscape.org/namespaces/inkscape"
   width="20mm"
   height="20mm"
   viewBox="0 0 20 20"
   version="1.1"
   id="svg8"
   inkscape:version="0.92.4 (5da689c313, 2019-01-14)"
   sodipodi:docname="OSHintosh logo.svg">
  <defs
     id="defs2">
    <style
       id="style1464">.cls-1{fill-rule:evenodd;}</style>
    <style
       id="style1451">.cls-1{fill-rule:evenodd;}</style>
  </defs>
  <sodipodi:namedview
     id="base"
     pagecolor="#ffffff"
     bordercolor="#666666"
     borderopacity="1.0"
     inkscape:pageopacity="1"
     inkscape:pageshadow="2"
     inkscape:zoom="4"
     inkscape:cx="-19.468403"
     inkscape:cy="46.033501"
     inkscape:document-units="mm"
     inkscape:current-layer="layer1"
     showgrid="false"
     inkscape:window-width="1920"
     inkscape:window-height="1009"
     inkscape:window-x="1912"
     inkscape:window-y="-8"
     inkscape:window-maximized="1"
     inkscape:pagecheckerboard="true"
     inkscape:snap-global="true" />
  <metadata
     id="metadata5">
    <rdf:RDF>
      <cc:Work
         rdf:about="">
        <dc:format>image/svg+xml</dc:format>
        <dc:type
           rdf:resource="http://purl.org/dc/dcmitype/StillImage" />
        <dc:title></dc:title>
      </cc:Work>
    </rdf:RDF>
  </metadata>
  <g
     inkscape:label="Layer 1"
     inkscape:groupmode="layer"
     id="layer1"
     transform="translate(0,-277)">
    <path
       inkscape:connector-curvature="0"
       d="m 12.531911,284.90032 -0.6035,-0.1122 c -0.01472,-0.003 -0.0308,-0.0165 -0.03568,-0.0307 l -0.184998,-0.4316 c -0.0069,-0.0134 -0.0056,-0.0342 0.003,-0.0467 l 0.351657,-0.51255 c 0.0084,-0.0124 0.0068,-0.031 -0.0039,-0.0417 l -0.439188,-0.43918 c -0.01057,-0.0106 -0.02936,-0.0124 -0.04165,-0.004 l -0.52148,0.35789 c -0.01238,0.008 -0.03351,0.01 -0.04688,0.003 l -0.418322,-0.17127 c -0.01418,-0.004 -0.02809,-0.0206 -0.0308,-0.0353 l -0.116166,-0.62419 c -0.0027,-0.0147 -0.01725,-0.0267 -0.03216,-0.0267 H 9.7906388 c -0.0149,0 -0.02945,0.012 -0.03216,0.0267 l -0.116166,0.62419 c -0.0028,0.0147 -0.01662,0.0306 -0.0308,0.0353 l -0.418412,0.17127 c -0.01346,0.007 -0.0346,0.005 -0.04688,-0.003 l -0.52148,-0.35789 c -0.01238,-0.009 -0.03116,-0.007 -0.04174,0.004 l -0.439188,0.43918 c -0.01057,0.0105 -0.01238,0.0293 -0.0039,0.0417 l 0.351658,0.51255 c 0.0084,0.0124 0.0098,0.0333 0.0029,0.0467 l -0.184997,0.4316 c -0.0049,0.0142 -0.02096,0.028 -0.03568,0.0307 l -0.6035,0.1122 c -0.01472,0.003 -0.02674,0.0172 -0.02674,0.0323 v 0.62111 c 0,0.015 0.0121,0.0295 0.02683,0.0323 l 0.588686,0.10957 c 0.01472,0.003 0.03044,0.0168 0.03495,0.031 l 0.183823,0.45906 c 0.0066,0.0135 0.005,0.0345 -0.0035,0.0469 l -0.334405,0.48725 c -0.0084,0.0124 -0.0067,0.0312 0.0039,0.0417 l 0.439278,0.43918 c 0.01057,0.0106 0.02936,0.0123 0.04174,0.004 l 0.478663,-0.32854 c 0.01238,-0.008 0.03297,-0.009 0.04589,-10e-4 l 0.211102,0.11273 c 0.01337,0.007 0.029,10e-4 0.03469,-0.0127 l 0.435214,-1.05172 c 0.0058,-0.0138 0,-0.0315 -0.01274,-0.0393 l -0.05284,-0.0323 c -0.0098,-0.006 -0.02304,-0.0162 -0.03342,-0.0256 -0.190598,-0.12203 -0.316971,-0.33548 -0.316971,-0.57856 0,-0.37939 0.307576,-0.68688 0.6868752,-0.68688 0.379299,0 0.686876,0.30758 0.686876,0.68688 0,0.24308 -0.126374,0.45662 -0.316971,0.57856 -0.0103,0.009 -0.02357,0.0196 -0.03333,0.0256 l -0.05284,0.0323 c -0.01274,0.008 -0.01852,0.0255 -0.01274,0.0393 l 0.435214,1.05172 c 0.0057,0.0138 0.02132,0.0196 0.03469,0.0127 l 0.211103,-0.11273 c 0.01291,-0.007 0.03351,-0.007 0.04589,10e-4 l 0.478663,0.32854 c 0.01238,0.008 0.03116,0.007 0.04164,-0.004 l 0.439279,-0.43918 c 0.01057,-0.0106 0.01238,-0.0295 0.0039,-0.0417 l -0.334404,-0.48725 c -0.0084,-0.0124 -0.01003,-0.0334 -0.0035,-0.0469 l 0.183823,-0.45906 c 0.0045,-0.0143 0.02014,-0.0282 0.03496,-0.031 l 0.588686,-0.10957 c 0.01472,-0.003 0.02674,-0.0172 0.02674,-0.0323 v -0.62111 c 8.9e-5,-0.015 -0.01193,-0.0295 -0.02665,-0.0323"
       id="path1455"
       style="fill:none;stroke:#000000;stroke-width:0.13229167;stroke-miterlimit:4;stroke-dasharray:none;stroke-opacity:1" />
    <path
       style="opacity:1;fill:none;fill-opacity:1;stroke:#000000;stroke-width:0.13229167;stroke-linecap:butt;stroke-linejoin:miter;stroke-miterlimit:4;stroke-dasharray:none;stroke-dashoffset:0;stroke-opacity:1"
       d="m 5.5820868,291.07599 h 8.8457902 v 1.38386 H 5.5820868 Z"
       id="rect1535"
       inkscape:connector-curvature="0" />
    <path
       style="fill:none;stroke:#000000;stroke-width:0.13229167;stroke-linecap:butt;stroke-linejoin:miter;stroke-miterlimit:4;stroke-dasharray:none;stroke-opacity:1"
       d="m 5.4494768,291.01043 c 0,-9.76749 0,-9.76749 0,-9.76749"
       id="path1539"
       inkscape:connector-curvature="0"
       sodipodi:nodetypes="cc" />
    <path
       style="fill:none;stroke:#000000;stroke-width:0.13229167;stroke-linecap:butt;stroke-linejoin:miter;stroke-miterlimit:4;stroke-dasharray:none;stroke-opacity:1"
       d="m 14.560002,291.02095 -0.01137,-9.77781"
       id="path1539-4"
       inkscape:connector-curvature="0"
       sodipodi:nodetypes="cc" />
    <path
       style="fill:none;stroke:#000000;stroke-width:0.13229167;stroke-linecap:butt;stroke-linejoin:miter;stroke-miterlimit:4;stroke-dasharray:none;stroke-opacity:1"
       d="M 6.8780428,287.91637 H 13.344282"
       id="path1539-0"
       inkscape:connector-curvature="0"
       sodipodi:nodetypes="cc" />
    <path
       style="fill:none;stroke:#000000;stroke-width:0.13229167;stroke-linecap:butt;stroke-linejoin:miter;stroke-miterlimit:4;stroke-dasharray:none;stroke-opacity:1"
       d="M 14.353867,281.03874 H 5.6452088"
       id="path1539-6-4-4"
       inkscape:connector-curvature="0"
       sodipodi:nodetypes="cc" />
    <path
       style="opacity:1;fill:none;fill-opacity:1;stroke:#000000;stroke-width:0.13229167;stroke-linecap:butt;stroke-linejoin:miter;stroke-miterlimit:4;stroke-dasharray:none;stroke-dashoffset:0;stroke-opacity:1"
       d="m 5.5500328,281.14048 h 0.06025 v 0.0666 h -0.06025 z"
       id="rect1616"
       inkscape:connector-curvature="0" />
    <path
       style="opacity:1;fill:none;fill-opacity:1;stroke:#000000;stroke-width:0.13229167;stroke-linecap:butt;stroke-linejoin:miter;stroke-miterlimit:4;stroke-dasharray:none;stroke-dashoffset:0;stroke-opacity:1"
       d="m 14.389262,281.14026 h 0.06025 v 0.0666 h -0.06025 z"
       id="rect1616-6"
       inkscape:connector-curvature="0" />
    <path
       style="opacity:1;fill:none;fill-opacity:1;stroke:#000000;stroke-width:0.13229167;stroke-linecap:butt;stroke-linejoin:miter;stroke-miterlimit:4;stroke-dasharray:none;stroke-dashoffset:0;stroke-opacity:1"
       d="m 11.04972,289.15427 h 2.097113 v 0.0197 H 11.04972 Z"
       id="rect1616-8"
       inkscape:connector-curvature="0" />
    <path
       style="opacity:1;fill:none;fill-opacity:1;stroke:#000000;stroke-width:0.13229167;stroke-linecap:butt;stroke-linejoin:miter;stroke-miterlimit:4;stroke-dasharray:none;stroke-dashoffset:0;stroke-opacity:1"
       d="m 13.250705,291.72101 h 0.330178 v 0.171 h -0.330178 z"
       id="rect1616-8-3"
       inkscape:connector-curvature="0" />
    <path
       style="fill:none;stroke:#000000;stroke-width:0.13229167;stroke-linecap:butt;stroke-linejoin:miter;stroke-miterlimit:4;stroke-dasharray:none;stroke-opacity:1"
       d="M 6.8776318,282.15461 H 13.343871"
       id="path1539-0-3"
       inkscape:connector-curvature="0"
       sodipodi:nodetypes="cc" />
    <path
       style="fill:none;stroke:#000000;stroke-width:0.13229167;stroke-linecap:butt;stroke-linejoin:miter;stroke-miterlimit:4;stroke-dasharray:none;stroke-opacity:1"
       d="m 13.410123,287.84483 v -5.61892"
       id="path1539-6-6"
       inkscape:connector-curvature="0"
       sodipodi:nodetypes="cc" />
    <path
       style="fill:none;stroke:#000000;stroke-width:0.13229167;stroke-linecap:butt;stroke-linejoin:miter;stroke-miterlimit:4;stroke-dasharray:none;stroke-opacity:1"
       d="m 6.8110388,287.84184 v -5.61892"
       id="path1539-6-6-7"
       inkscape:connector-curvature="0"
       sodipodi:nodetypes="cc" />
  </g>
</svg>
