<svg version="1.1" xmlns="http://www.w3.org/2000/svg" xmlns:xlink="http://www.w3.org/1999/xlink" stroke-linecap="round" stroke-linejoin="round" stroke-width="0" fill-rule="evenodd" width="298.3mm" height="235.203mm" viewBox="3350 8586 298300 235203" id="XPNNAt5mR9qKcsYbLdhK"><defs><circle cx="0" cy="0" r="1651" id="XPNNAt5mR9qKcsYbLdhK_pad-1"/><circle cx="0" cy="0" r="1650" id="XPNNAt5mR9qKcsYbLdhK_pad-2"/><circle cx="0" cy="0" r="1600" id="XPNNAt5mR9qKcsYbLdhK_pad-3"/><circle cx="0" cy="0" r="1500" id="XPNNAt5mR9qKcsYbLdhK_pad-4"/><circle cx="0" cy="0" r="1050" id="XPNNAt5mR9qKcsYbLdhK_pad-5"/><circle cx="0" cy="0" r="600" id="XPNNAt5mR9qKcsYbLdhK_pad-6"/></defs><g transform="translate(0,252375) scale(1,-1)" fill="currentColor" stroke="currentColor"><use xlink:href="#XPNNAt5mR9qKcsYbLdhK_pad-1" x="268000" y="175715"/><use xlink:href="#XPNNAt5mR9qKcsYbLdhK_pad-2" x="5000" y="200000"/><use xlink:href="#XPNNAt5mR9qKcsYbLdhK_pad-2" x="5000" y="120000"/><use xlink:href="#XPNNAt5mR9qKcsYbLdhK_pad-2" x="5000" y="40000"/><use xlink:href="#XPNNAt5mR9qKcsYbLdhK_pad-2" x="300000" y="40000"/><use xlink:href="#XPNNAt5mR9qKcsYbLdhK_pad-2" x="300000" y="120000"/><use xlink:href="#XPNNAt5mR9qKcsYbLdhK_pad-2" x="300000" y="200000"/><use xlink:href="#XPNNAt5mR9qKcsYbLdhK_pad-3" x="263230" y="10186"/><use xlink:href="#XPNNAt5mR9qKcsYbLdhK_pad-3" x="273390" y="10186"/><use xlink:href="#XPNNAt5mR9qKcsYbLdhK_pad-4" x="298031" y="130457"/><use xlink:href="#XPNNAt5mR9qKcsYbLdhK_pad-4" x="298031" y="176657"/><use xlink:href="#XPNNAt5mR9qKcsYbLdhK_pad-5" x="245630" y="203810"/><use xlink:href="#XPNNAt5mR9qKcsYbLdhK_pad-5" x="245630" y="192410"/><use xlink:href="#XPNNAt5mR9qKcsYbLdhK_pad-5" x="292630" y="192410"/><use xlink:href="#XPNNAt5mR9qKcsYbLdhK_pad-5" x="292630" y="203810"/><use xlink:href="#XPNNAt5mR9qKcsYbLdhK_pad-5" x="246996" y="239798"/><use xlink:href="#XPNNAt5mR9qKcsYbLdhK_pad-5" x="238496" y="239798"/><use xlink:href="#XPNNAt5mR9qKcsYbLdhK_pad-6" x="164728" y="240689"/><use xlink:href="#XPNNAt5mR9qKcsYbLdhK_pad-6" x="164728" y="243189"/><use xlink:href="#XPNNAt5mR9qKcsYbLdhK_pad-6" x="154728" y="243189"/><use xlink:href="#XPNNAt5mR9qKcsYbLdhK_pad-6" x="154728" y="240689"/><use xlink:href="#XPNNAt5mR9qKcsYbLdhK_pad-6" x="159728" y="235689"/></g></svg>