  0
SECTION
  2
HEADER
  9
$ACADVER
  1
AC1014
  9
$HANDSEED
  5
FFFF
  9
$MEASUREMENT
 70
     1
  0
ENDSEC
  0
SECTION
  2
TABLES
  0
TABLE
  2
VPORT
  5
8
330
0
100
AcDbSymbolTable
 70
     4
  0
VPORT
  5
2E
330
8
100
AcDbSymbolTableRecord
100
AcDbViewportTableRecord
  2
*ACTIVE
 70
     0
 10
0.0
 20
0.0
 11
1.0
 21
1.0
 12
210.0
 22
148.5
 13
0.0
 23
0.0
 14
10.0
 24
10.0
 15
10.0
 25
10.0
 16
0.0
 26
0.0
 36
1.0
 17
0.0
 27
0.0
 37
0.0
 40
341.0
 41
1.24
 42
50.0
 43
0.0
 44
0.0
 50
0.0
 51
0.0
 71
     0
 72
   100
 73
     1
 74
     3
 75
     0
 76
     0
 77
     0
 78
     0
  0
ENDTAB
  0
TABLE
  2
LTYPE
  5
5
330
0
100
AcDbSymbolTable
 70
     1
  0
LTYPE
  5
14
330
5
100
AcDbSymbolTableRecord
100
AcDbLinetypeTableRecord
  2
BYBLOCK
 70
     0
  3

 72
    65
 73
     0
 40
0.0
  0
LTYPE
  5
15
330
5
100
AcDbSymbolTableRecord
100
AcDbLinetypeTableRecord
  2
BYLAYER
 70
     0
  3

 72
    65
 73
     0
 40
0.0
  0
LTYPE
  5
16
330
5
100
AcDbSymbolTableRecord
100
AcDbLinetypeTableRecord
  2
CONTINUOUS
 70
     0
  3
Solid line
 72
    65
 73
     0
 40
0.0
  0
ENDTAB
  0
TABLE
  2
LAYER
  5
2
100
AcDbSymbolTable
 70
1
  0
LAYER
  5
50
100
AcDbSymbolTableRecord
100
AcDbLayerTableRecord
  2
0
 70
0
  6
CONTINUOUS
  0
ENDTAB
  0
TABLE
  2
STYLE
  5
3
330
0
100
AcDbSymbolTable
 70
     1
  0
STYLE
  5
11
330
3
100
AcDbSymbolTableRecord
100
AcDbTextStyleTableRecord
  2
STANDARD
 70
     0
 40
0.0
 41
1.0
 50
0.0
 71
     0
 42
2.5
  3
txt
  4

  0
ENDTAB
  0
TABLE
  2
VIEW
  5
6
330
0
100
AcDbSymbolTable
 70
     0
  0
ENDTAB
  0
TABLE
  2
UCS
  5
7
330
0
100
AcDbSymbolTable
 70
     0
  0
ENDTAB
  0
TABLE
  2
APPID
  5
9
330
0
100
AcDbSymbolTable
 70
     2
  0
APPID
  5
12
330
9
100
AcDbSymbolTableRecord
100
AcDbRegAppTableRecord
  2
ACAD
 70
     0
  0
ENDTAB
  0
TABLE
  2
DIMSTYLE
  5
A
330
0
100
AcDbSymbolTable
 70
     1
  0
DIMSTYLE
105
27
330
A
100
AcDbSymbolTableRecord
100
AcDbDimStyleTableRecord
  2
ISO-25
 70
     0
  3

  4

  5

  6

  7

 40
1.0
 41
2.5
 42
0.625
 43
3.75
 44
1.25
 45
0.0
 46
0.0
 47
0.0
 48
0.0
140
2.5
141
2.5
142
0.0
143
0.03937007874016
144
1.0
145
0.0
146
1.0
147
0.625
 71
     0
 72
     0
 73
     0
 74
     0
 75
     0
 76
     0
 77
     1
 78
     8
170
     0
171
     3
172
     1
173
     0
174
     0
175
     0
176
     0
177
     0
178
     0
270
     2
271
     2
272
     2
273
     2
274
     3
340
11
275
     0
280
     0
281
     0
282
     0
283
     0
284
     8
285
     0
286
     0
287
     3
288
     0
  0
ENDTAB
  0
TABLE
  2
BLOCK_RECORD
  5
1
330
0
100
AcDbSymbolTable
 70
     1
  0
BLOCK_RECORD
  5
1F
330
1
100
AcDbSymbolTableRecord
100
AcDbBlockTableRecord
  2
*MODEL_SPACE
  0
BLOCK_RECORD
  5
1B
330
1
100
AcDbSymbolTableRecord
100
AcDbBlockTableRecord
  2
*PAPER_SPACE
  0
ENDTAB
  0
ENDSEC
  0
SECTION
  2
BLOCKS
  0
BLOCK
  5
20
330
1F
100
AcDbEntity
  8
0
100
AcDbBlockBegin
  2
*MODEL_SPACE
 70
     0
 10
0.0
 20
0.0
 30
0.0
  3
*MODEL_SPACE
  1

  0
ENDBLK
  5
21
330
1F
100
AcDbEntity
  8
0
100
AcDbBlockEnd
  0
BLOCK
  5
1C
330
1B
100
AcDbEntity
 67
     1
  8
0
100
AcDbBlockBegin
  2
*PAPER_SPACE
  1

  0
ENDBLK
  5
1D
330
1B
100
AcDbEntity
 67
     1
  8
0
100
AcDbBlockEnd
  0
ENDSEC
  0
SECTION
  2
ENTITIES
  0
LWPOLYLINE
  5
100
100
AcDbEntity
  8
0
 62
1
100
AcDbPolyline
 90
4
 70
1
 10
0.000000
 20
-243.077795
 30
0.0
 10
305.000000
 20
-243.077795
 30
0.0
 10
305.000000
 20
0.922205
 30
0.0
 10
0.000000
 20
0.922205
 30
0.0
  0
LWPOLYLINE
  5
101
100
AcDbEntity
  8
0
 62
7
100
AcDbPolyline
 90
256
 70
1
 10
3.350000
 20
-43.077795
 30
0.0
 10
3.350500
 20
-43.037305
 30
0.0
 10
3.351990
 20
-42.996835
 30
0.0
 10
3.354470
 20
-42.956415
 30
0.0
 10
3.357950
 20
-42.916065
 30
0.0
 10
3.362410
 20
-42.875815
 30
0.0
 10
3.367860
 20
-42.835685
 30
0.0
 10
3.374290
 20
-42.795705
 30
0.0
 10
3.381700
 20
-42.755895
 30
0.0
 10
3.390090
 20
-42.716275
 30
0.0
 10
3.399450
 20
-42.676875
 30
0.0
 10
3.409770
 20
-42.637715
 30
0.0
 10
3.421050
 20
-42.598825
 30
0.0
 10
3.433280
 20
-42.560225
 30
0.0
 10
3.446450
 20
-42.521925
 30
0.0
 10
3.460560
 20
-42.483965
 30
0.0
 10
3.475600
 20
-42.446365
 30
0.0
 10
3.491550
 20
-42.409145
 30
0.0
 10
3.508420
 20
-42.372325
 30
0.0
 10
3.526180
 20
-42.335935
 30
0.0
 10
3.544830
 20
-42.299995
 30
0.0
 10
3.564360
 20
-42.264515
 30
0.0
 10
3.584750
 20
-42.229525
 30
0.0
 10
3.605990
 20
-42.195045
 30
0.0
 10
3.628080
 20
-42.161105
 30
0.0
 10
3.650990
 20
-42.127715
 30
0.0
 10
3.674710
 20
-42.094895
 30
0.0
 10
3.699230
 20
-42.062665
 30
0.0
 10
3.724530
 20
-42.031045
 30
0.0
 10
3.750610
 20
-42.000055
 30
0.0
 10
3.777430
 20
-41.969725
 30
0.0
 10
3.804990
 20
-41.940055
 30
0.0
 10
3.833270
 20
-41.911065
 30
0.0
 10
3.862260
 20
-41.882785
 30
0.0
 10
3.891930
 20
-41.855225
 30
0.0
 10
3.922260
 20
-41.828405
 30
0.0
 10
3.953250
 20
-41.802325
 30
0.0
 10
3.984870
 20
-41.777025
 30
0.0
 10
4.017100
 20
-41.752505
 30
0.0
 10
4.049920
 20
-41.728785
 30
0.0
 10
4.083310
 20
-41.705875
 30
0.0
 10
4.117250
 20
-41.683785
 30
0.0
 10
4.151730
 20
-41.662545
 30
0.0
 10
4.186720
 20
-41.642155
 30
0.0
 10
4.222200
 20
-41.622625
 30
0.0
 10
4.258140
 20
-41.603975
 30
0.0
 10
4.294530
 20
-41.586215
 30
0.0
 10
4.331350
 20
-41.569345
 30
0.0
 10
4.368570
 20
-41.553395
 30
0.0
 10
4.406170
 20
-41.538355
 30
0.0
 10
4.444130
 20
-41.524245
 30
0.0
 10
4.482430
 20
-41.511075
 30
0.0
 10
4.521030
 20
-41.498845
 30
0.0
 10
4.559920
 20
-41.487565
 30
0.0
 10
4.599080
 20
-41.477245
 30
0.0
 10
4.638480
 20
-41.467885
 30
0.0
 10
4.678100
 20
-41.459495
 30
0.0
 10
4.717910
 20
-41.452085
 30
0.0
 10
4.757890
 20
-41.445655
 30
0.0
 10
4.798020
 20
-41.440205
 30
0.0
 10
4.838270
 20
-41.435745
 30
0.0
 10
4.878620
 20
-41.432265
 30
0.0
 10
4.919040
 20
-41.429785
 30
0.0
 10
4.959510
 20
-41.428295
 30
0.0
 10
5.000000
 20
-41.427795
 30
0.0
 10
5.040490
 20
-41.428295
 30
0.0
 10
5.080960
 20
-41.429785
 30
0.0
 10
5.121380
 20
-41.432265
 30
0.0
 10
5.161730
 20
-41.435745
 30
0.0
 10
5.201980
 20
-41.440205
 30
0.0
 10
5.242110
 20
-41.445655
 30
0.0
 10
5.282090
 20
-41.452085
 30
0.0
 10
5.321900
 20
-41.459495
 30
0.0
 10
5.361520
 20
-41.467885
 30
0.0
 10
5.400920
 20
-41.477245
 30
0.0
 10
5.440080
 20
-41.487565
 30
0.0
 10
5.478970
 20
-41.498845
 30
0.0
 10
5.517570
 20
-41.511075
 30
0.0
 10
5.555870
 20
-41.524245
 30
0.0
 10
5.593830
 20
-41.538355
 30
0.0
 10
5.631430
 20
-41.553395
 30
0.0
 10
5.668650
 20
-41.569345
 30
0.0
 10
5.705470
 20
-41.586215
 30
0.0
 10
5.741860
 20
-41.603975
 30
0.0
 10
5.777800
 20
-41.622625
 30
0.0
 10
5.813280
 20
-41.642155
 30
0.0
 10
5.848270
 20
-41.662545
 30
0.0
 10
5.882750
 20
-41.683785
 30
0.0
 10
5.916690
 20
-41.705875
 30
0.0
 10
5.950080
 20
-41.728785
 30
0.0
 10
5.982900
 20
-41.752505
 30
0.0
 10
6.015130
 20
-41.777025
 30
0.0
 10
6.046750
 20
-41.802325
 30
0.0
 10
6.077740
 20
-41.828405
 30
0.0
 10
6.108070
 20
-41.855225
 30
0.0
 10
6.137740
 20
-41.882785
 30
0.0
 10
6.166730
 20
-41.911065
 30
0.0
 10
6.195010
 20
-41.940055
 30
0.0
 10
6.222570
 20
-41.969725
 30
0.0
 10
6.249390
 20
-42.000055
 30
0.0
 10
6.275470
 20
-42.031045
 30
0.0
 10
6.300770
 20
-42.062665
 30
0.0
 10
6.325290
 20
-42.094895
 30
0.0
 10
6.349010
 20
-42.127715
 30
0.0
 10
6.371920
 20
-42.161105
 30
0.0
 10
6.394010
 20
-42.195045
 30
0.0
 10
6.415250
 20
-42.229525
 30
0.0
 10
6.435640
 20
-42.264515
 30
0.0
 10
6.455170
 20
-42.299995
 30
0.0
 10
6.473820
 20
-42.335935
 30
0.0
 10
6.491580
 20
-42.372325
 30
0.0
 10
6.508450
 20
-42.409145
 30
0.0
 10
6.524400
 20
-42.446365
 30
0.0
 10
6.539440
 20
-42.483965
 30
0.0
 10
6.553550
 20
-42.521925
 30
0.0
 10
6.566720
 20
-42.560225
 30
0.0
 10
6.578950
 20
-42.598825
 30
0.0
 10
6.590230
 20
-42.637715
 30
0.0
 10
6.600550
 20
-42.676875
 30
0.0
 10
6.609910
 20
-42.716275
 30
0.0
 10
6.618300
 20
-42.755895
 30
0.0
 10
6.625710
 20
-42.795705
 30
0.0
 10
6.632140
 20
-42.835685
 30
0.0
 10
6.637590
 20
-42.875815
 30
0.0
 10
6.642050
 20
-42.916065
 30
0.0
 10
6.645530
 20
-42.956415
 30
0.0
 10
6.648010
 20
-42.996835
 30
0.0
 10
6.649500
 20
-43.037305
 30
0.0
 10
6.650000
 20
-43.077795
 30
0.0
 10
6.649500
 20
-43.118285
 30
0.0
 10
6.648010
 20
-43.158755
 30
0.0
 10
6.645530
 20
-43.199175
 30
0.0
 10
6.642050
 20
-43.239525
 30
0.0
 10
6.637590
 20
-43.279775
 30
0.0
 10
6.632140
 20
-43.319905
 30
0.0
 10
6.625710
 20
-43.359885
 30
0.0
 10
6.618300
 20
-43.399695
 30
0.0
 10
6.609910
 20
-43.439315
 30
0.0
 10
6.600550
 20
-43.478715
 30
0.0
 10
6.590230
 20
-43.517875
 30
0.0
 10
6.578950
 20
-43.556765
 30
0.0
 10
6.566720
 20
-43.595365
 30
0.0
 10
6.553550
 20
-43.633665
 30
0.0
 10
6.539440
 20
-43.671625
 30
0.0
 10
6.524400
 20
-43.709225
 30
0.0
 10
6.508450
 20
-43.746445
 30
0.0
 10
6.491580
 20
-43.783265
 30
0.0
 10
6.473820
 20
-43.819655
 30
0.0
 10
6.455170
 20
-43.855595
 30
0.0
 10
6.435640
 20
-43.891075
 30
0.0
 10
6.415250
 20
-43.926065
 30
0.0
 10
6.394010
 20
-43.960545
 30
0.0
 10
6.371920
 20
-43.994485
 30
0.0
 10
6.349010
 20
-44.027875
 30
0.0
 10
6.325290
 20
-44.060695
 30
0.0
 10
6.300770
 20
-44.092925
 30
0.0
 10
6.275470
 20
-44.124545
 30
0.0
 10
6.249390
 20
-44.155535
 30
0.0
 10
6.222570
 20
-44.185865
 30
0.0
 10
6.195010
 20
-44.215535
 30
0.0
 10
6.166730
 20
-44.244525
 30
0.0
 10
6.137740
 20
-44.272805
 30
0.0
 10
6.108070
 20
-44.300365
 30
0.0
 10
6.077740
 20
-44.327185
 30
0.0
 10
6.046750
 20
-44.353265
 30
0.0
 10
6.015130
 20
-44.378565
 30
0.0
 10
5.982900
 20
-44.403085
 30
0.0
 10
5.950080
 20
-44.426805
 30
0.0
 10
5.916690
 20
-44.449715
 30
0.0
 10
5.882750
 20
-44.471805
 30
0.0
 10
5.848270
 20
-44.493045
 30
0.0
 10
5.813280
 20
-44.513435
 30
0.0
 10
5.777800
 20
-44.532965
 30
0.0
 10
5.741860
 20
-44.551615
 30
0.0
 10
5.705470
 20
-44.569375
 30
0.0
 10
5.668650
 20
-44.586245
 30
0.0
 10
5.631430
 20
-44.602195
 30
0.0
 10
5.593830
 20
-44.617235
 30
0.0
 10
5.555870
 20
-44.631345
 30
0.0
 10
5.517570
 20
-44.644515
 30
0.0
 10
5.478970
 20
-44.656745
 30
0.0
 10
5.440080
 20
-44.668025
 30
0.0
 10
5.400920
 20
-44.678345
 30
0.0
 10
5.361520
 20
-44.687705
 30
0.0
 10
5.321900
 20
-44.696095
 30
0.0
 10
5.282090
 20
-44.703505
 30
0.0
 10
5.242110
 20
-44.709935
 30
0.0
 10
5.201980
 20
-44.715385
 30
0.0
 10
5.161730
 20
-44.719845
 30
0.0
 10
5.121380
 20
-44.723325
 30
0.0
 10
5.080960
 20
-44.725805
 30
0.0
 10
5.040490
 20
-44.727295
 30
0.0
 10
5.000000
 20
-44.727795
 30
0.0
 10
4.959510
 20
-44.727295
 30
0.0
 10
4.919040
 20
-44.725805
 30
0.0
 10
4.878620
 20
-44.723325
 30
0.0
 10
4.838270
 20
-44.719845
 30
0.0
 10
4.798020
 20
-44.715385
 30
0.0
 10
4.757890
 20
-44.709935
 30
0.0
 10
4.717910
 20
-44.703505
 30
0.0
 10
4.678100
 20
-44.696095
 30
0.0
 10
4.638480
 20
-44.687705
 30
0.0
 10
4.599080
 20
-44.678345
 30
0.0
 10
4.559920
 20
-44.668025
 30
0.0
 10
4.521030
 20
-44.656745
 30
0.0
 10
4.482430
 20
-44.644515
 30
0.0
 10
4.444130
 20
-44.631345
 30
0.0
 10
4.406170
 20
-44.617235
 30
0.0
 10
4.368570
 20
-44.602195
 30
0.0
 10
4.331350
 20
-44.586245
 30
0.0
 10
4.294530
 20
-44.569375
 30
0.0
 10
4.258140
 20
-44.551615
 30
0.0
 10
4.222200
 20
-44.532965
 30
0.0
 10
4.186720
 20
-44.513435
 30
0.0
 10
4.151730
 20
-44.493045
 30
0.0
 10
4.117250
 20
-44.471805
 30
0.0
 10
4.083310
 20
-44.449715
 30
0.0
 10
4.049920
 20
-44.426805
 30
0.0
 10
4.017100
 20
-44.403085
 30
0.0
 10
3.984870
 20
-44.378565
 30
0.0
 10
3.953250
 20
-44.353265
 30
0.0
 10
3.922260
 20
-44.327185
 30
0.0
 10
3.891930
 20
-44.300365
 30
0.0
 10
3.862260
 20
-44.272805
 30
0.0
 10
3.833270
 20
-44.244525
 30
0.0
 10
3.804990
 20
-44.215535
 30
0.0
 10
3.777430
 20
-44.185865
 30
0.0
 10
3.750610
 20
-44.155535
 30
0.0
 10
3.724530
 20
-44.124545
 30
0.0
 10
3.699230
 20
-44.092925
 30
0.0
 10
3.674710
 20
-44.060695
 30
0.0
 10
3.650990
 20
-44.027875
 30
0.0
 10
3.628080
 20
-43.994485
 30
0.0
 10
3.605990
 20
-43.960545
 30
0.0
 10
3.584750
 20
-43.926065
 30
0.0
 10
3.564360
 20
-43.891075
 30
0.0
 10
3.544830
 20
-43.855595
 30
0.0
 10
3.526180
 20
-43.819655
 30
0.0
 10
3.508420
 20
-43.783265
 30
0.0
 10
3.491550
 20
-43.746445
 30
0.0
 10
3.475600
 20
-43.709225
 30
0.0
 10
3.460560
 20
-43.671625
 30
0.0
 10
3.446450
 20
-43.633665
 30
0.0
 10
3.433280
 20
-43.595365
 30
0.0
 10
3.421050
 20
-43.556765
 30
0.0
 10
3.409770
 20
-43.517875
 30
0.0
 10
3.399450
 20
-43.478715
 30
0.0
 10
3.390090
 20
-43.439315
 30
0.0
 10
3.381700
 20
-43.399695
 30
0.0
 10
3.374290
 20
-43.359885
 30
0.0
 10
3.367860
 20
-43.319905
 30
0.0
 10
3.362410
 20
-43.279775
 30
0.0
 10
3.357950
 20
-43.239525
 30
0.0
 10
3.354470
 20
-43.199175
 30
0.0
 10
3.351990
 20
-43.158755
 30
0.0
 10
3.350500
 20
-43.118285
 30
0.0
  0
LWPOLYLINE
  5
102
100
AcDbEntity
  8
0
 62
7
100
AcDbPolyline
 90
256
 70
1
 10
3.350000
 20
-123.077795
 30
0.0
 10
3.350500
 20
-123.037305
 30
0.0
 10
3.351990
 20
-122.996835
 30
0.0
 10
3.354470
 20
-122.956415
 30
0.0
 10
3.357950
 20
-122.916065
 30
0.0
 10
3.362410
 20
-122.875815
 30
0.0
 10
3.367860
 20
-122.835685
 30
0.0
 10
3.374290
 20
-122.795705
 30
0.0
 10
3.381700
 20
-122.755895
 30
0.0
 10
3.390090
 20
-122.716275
 30
0.0
 10
3.399450
 20
-122.676875
 30
0.0
 10
3.409770
 20
-122.637715
 30
0.0
 10
3.421050
 20
-122.598825
 30
0.0
 10
3.433280
 20
-122.560225
 30
0.0
 10
3.446450
 20
-122.521925
 30
0.0
 10
3.460560
 20
-122.483965
 30
0.0
 10
3.475600
 20
-122.446365
 30
0.0
 10
3.491550
 20
-122.409145
 30
0.0
 10
3.508420
 20
-122.372325
 30
0.0
 10
3.526180
 20
-122.335935
 30
0.0
 10
3.544830
 20
-122.299995
 30
0.0
 10
3.564360
 20
-122.264515
 30
0.0
 10
3.584750
 20
-122.229525
 30
0.0
 10
3.605990
 20
-122.195045
 30
0.0
 10
3.628080
 20
-122.161105
 30
0.0
 10
3.650990
 20
-122.127715
 30
0.0
 10
3.674710
 20
-122.094895
 30
0.0
 10
3.699230
 20
-122.062665
 30
0.0
 10
3.724530
 20
-122.031045
 30
0.0
 10
3.750610
 20
-122.000055
 30
0.0
 10
3.777430
 20
-121.969725
 30
0.0
 10
3.804990
 20
-121.940055
 30
0.0
 10
3.833270
 20
-121.911065
 30
0.0
 10
3.862260
 20
-121.882785
 30
0.0
 10
3.891930
 20
-121.855225
 30
0.0
 10
3.922260
 20
-121.828405
 30
0.0
 10
3.953250
 20
-121.802325
 30
0.0
 10
3.984870
 20
-121.777025
 30
0.0
 10
4.017100
 20
-121.752505
 30
0.0
 10
4.049920
 20
-121.728785
 30
0.0
 10
4.083310
 20
-121.705875
 30
0.0
 10
4.117250
 20
-121.683785
 30
0.0
 10
4.151730
 20
-121.662545
 30
0.0
 10
4.186720
 20
-121.642155
 30
0.0
 10
4.222200
 20
-121.622625
 30
0.0
 10
4.258140
 20
-121.603975
 30
0.0
 10
4.294530
 20
-121.586215
 30
0.0
 10
4.331350
 20
-121.569345
 30
0.0
 10
4.368570
 20
-121.553395
 30
0.0
 10
4.406170
 20
-121.538355
 30
0.0
 10
4.444130
 20
-121.524245
 30
0.0
 10
4.482430
 20
-121.511075
 30
0.0
 10
4.521030
 20
-121.498845
 30
0.0
 10
4.559920
 20
-121.487565
 30
0.0
 10
4.599080
 20
-121.477245
 30
0.0
 10
4.638480
 20
-121.467885
 30
0.0
 10
4.678100
 20
-121.459495
 30
0.0
 10
4.717910
 20
-121.452085
 30
0.0
 10
4.757890
 20
-121.445655
 30
0.0
 10
4.798020
 20
-121.440205
 30
0.0
 10
4.838270
 20
-121.435745
 30
0.0
 10
4.878620
 20
-121.432265
 30
0.0
 10
4.919040
 20
-121.429785
 30
0.0
 10
4.959510
 20
-121.428295
 30
0.0
 10
5.000000
 20
-121.427795
 30
0.0
 10
5.040490
 20
-121.428295
 30
0.0
 10
5.080960
 20
-121.429785
 30
0.0
 10
5.121380
 20
-121.432265
 30
0.0
 10
5.161730
 20
-121.435745
 30
0.0
 10
5.201980
 20
-121.440205
 30
0.0
 10
5.242110
 20
-121.445655
 30
0.0
 10
5.282090
 20
-121.452085
 30
0.0
 10
5.321900
 20
-121.459495
 30
0.0
 10
5.361520
 20
-121.467885
 30
0.0
 10
5.400920
 20
-121.477245
 30
0.0
 10
5.440080
 20
-121.487565
 30
0.0
 10
5.478970
 20
-121.498845
 30
0.0
 10
5.517570
 20
-121.511075
 30
0.0
 10
5.555870
 20
-121.524245
 30
0.0
 10
5.593830
 20
-121.538355
 30
0.0
 10
5.631430
 20
-121.553395
 30
0.0
 10
5.668650
 20
-121.569345
 30
0.0
 10
5.705470
 20
-121.586215
 30
0.0
 10
5.741860
 20
-121.603975
 30
0.0
 10
5.777800
 20
-121.622625
 30
0.0
 10
5.813280
 20
-121.642155
 30
0.0
 10
5.848270
 20
-121.662545
 30
0.0
 10
5.882750
 20
-121.683785
 30
0.0
 10
5.916690
 20
-121.705875
 30
0.0
 10
5.950080
 20
-121.728785
 30
0.0
 10
5.982900
 20
-121.752505
 30
0.0
 10
6.015130
 20
-121.777025
 30
0.0
 10
6.046750
 20
-121.802325
 30
0.0
 10
6.077740
 20
-121.828405
 30
0.0
 10
6.108070
 20
-121.855225
 30
0.0
 10
6.137740
 20
-121.882785
 30
0.0
 10
6.166730
 20
-121.911065
 30
0.0
 10
6.195010
 20
-121.940055
 30
0.0
 10
6.222570
 20
-121.969725
 30
0.0
 10
6.249390
 20
-122.000055
 30
0.0
 10
6.275470
 20
-122.031045
 30
0.0
 10
6.300770
 20
-122.062665
 30
0.0
 10
6.325290
 20
-122.094895
 30
0.0
 10
6.349010
 20
-122.127715
 30
0.0
 10
6.371920
 20
-122.161105
 30
0.0
 10
6.394010
 20
-122.195045
 30
0.0
 10
6.415250
 20
-122.229525
 30
0.0
 10
6.435640
 20
-122.264515
 30
0.0
 10
6.455170
 20
-122.299995
 30
0.0
 10
6.473820
 20
-122.335935
 30
0.0
 10
6.491580
 20
-122.372325
 30
0.0
 10
6.508450
 20
-122.409145
 30
0.0
 10
6.524400
 20
-122.446365
 30
0.0
 10
6.539440
 20
-122.483965
 30
0.0
 10
6.553550
 20
-122.521925
 30
0.0
 10
6.566720
 20
-122.560225
 30
0.0
 10
6.578950
 20
-122.598825
 30
0.0
 10
6.590230
 20
-122.637715
 30
0.0
 10
6.600550
 20
-122.676875
 30
0.0
 10
6.609910
 20
-122.716275
 30
0.0
 10
6.618300
 20
-122.755895
 30
0.0
 10
6.625710
 20
-122.795705
 30
0.0
 10
6.632140
 20
-122.835685
 30
0.0
 10
6.637590
 20
-122.875815
 30
0.0
 10
6.642050
 20
-122.916065
 30
0.0
 10
6.645530
 20
-122.956415
 30
0.0
 10
6.648010
 20
-122.996835
 30
0.0
 10
6.649500
 20
-123.037305
 30
0.0
 10
6.650000
 20
-123.077795
 30
0.0
 10
6.649500
 20
-123.118285
 30
0.0
 10
6.648010
 20
-123.158755
 30
0.0
 10
6.645530
 20
-123.199175
 30
0.0
 10
6.642050
 20
-123.239525
 30
0.0
 10
6.637590
 20
-123.279775
 30
0.0
 10
6.632140
 20
-123.319905
 30
0.0
 10
6.625710
 20
-123.359885
 30
0.0
 10
6.618300
 20
-123.399695
 30
0.0
 10
6.609910
 20
-123.439315
 30
0.0
 10
6.600550
 20
-123.478715
 30
0.0
 10
6.590230
 20
-123.517875
 30
0.0
 10
6.578950
 20
-123.556765
 30
0.0
 10
6.566720
 20
-123.595365
 30
0.0
 10
6.553550
 20
-123.633665
 30
0.0
 10
6.539440
 20
-123.671625
 30
0.0
 10
6.524400
 20
-123.709225
 30
0.0
 10
6.508450
 20
-123.746445
 30
0.0
 10
6.491580
 20
-123.783265
 30
0.0
 10
6.473820
 20
-123.819655
 30
0.0
 10
6.455170
 20
-123.855595
 30
0.0
 10
6.435640
 20
-123.891075
 30
0.0
 10
6.415250
 20
-123.926065
 30
0.0
 10
6.394010
 20
-123.960545
 30
0.0
 10
6.371920
 20
-123.994485
 30
0.0
 10
6.349010
 20
-124.027875
 30
0.0
 10
6.325290
 20
-124.060695
 30
0.0
 10
6.300770
 20
-124.092925
 30
0.0
 10
6.275470
 20
-124.124545
 30
0.0
 10
6.249390
 20
-124.155535
 30
0.0
 10
6.222570
 20
-124.185865
 30
0.0
 10
6.195010
 20
-124.215535
 30
0.0
 10
6.166730
 20
-124.244525
 30
0.0
 10
6.137740
 20
-124.272805
 30
0.0
 10
6.108070
 20
-124.300365
 30
0.0
 10
6.077740
 20
-124.327185
 30
0.0
 10
6.046750
 20
-124.353265
 30
0.0
 10
6.015130
 20
-124.378565
 30
0.0
 10
5.982900
 20
-124.403085
 30
0.0
 10
5.950080
 20
-124.426805
 30
0.0
 10
5.916690
 20
-124.449715
 30
0.0
 10
5.882750
 20
-124.471805
 30
0.0
 10
5.848270
 20
-124.493045
 30
0.0
 10
5.813280
 20
-124.513435
 30
0.0
 10
5.777800
 20
-124.532965
 30
0.0
 10
5.741860
 20
-124.551615
 30
0.0
 10
5.705470
 20
-124.569375
 30
0.0
 10
5.668650
 20
-124.586245
 30
0.0
 10
5.631430
 20
-124.602195
 30
0.0
 10
5.593830
 20
-124.617235
 30
0.0
 10
5.555870
 20
-124.631345
 30
0.0
 10
5.517570
 20
-124.644515
 30
0.0
 10
5.478970
 20
-124.656745
 30
0.0
 10
5.440080
 20
-124.668025
 30
0.0
 10
5.400920
 20
-124.678345
 30
0.0
 10
5.361520
 20
-124.687705
 30
0.0
 10
5.321900
 20
-124.696095
 30
0.0
 10
5.282090
 20
-124.703505
 30
0.0
 10
5.242110
 20
-124.709935
 30
0.0
 10
5.201980
 20
-124.715385
 30
0.0
 10
5.161730
 20
-124.719845
 30
0.0
 10
5.121380
 20
-124.723325
 30
0.0
 10
5.080960
 20
-124.725805
 30
0.0
 10
5.040490
 20
-124.727295
 30
0.0
 10
5.000000
 20
-124.727795
 30
0.0
 10
4.959510
 20
-124.727295
 30
0.0
 10
4.919040
 20
-124.725805
 30
0.0
 10
4.878620
 20
-124.723325
 30
0.0
 10
4.838270
 20
-124.719845
 30
0.0
 10
4.798020
 20
-124.715385
 30
0.0
 10
4.757890
 20
-124.709935
 30
0.0
 10
4.717910
 20
-124.703505
 30
0.0
 10
4.678100
 20
-124.696095
 30
0.0
 10
4.638480
 20
-124.687705
 30
0.0
 10
4.599080
 20
-124.678345
 30
0.0
 10
4.559920
 20
-124.668025
 30
0.0
 10
4.521030
 20
-124.656745
 30
0.0
 10
4.482430
 20
-124.644515
 30
0.0
 10
4.444130
 20
-124.631345
 30
0.0
 10
4.406170
 20
-124.617235
 30
0.0
 10
4.368570
 20
-124.602195
 30
0.0
 10
4.331350
 20
-124.586245
 30
0.0
 10
4.294530
 20
-124.569375
 30
0.0
 10
4.258140
 20
-124.551615
 30
0.0
 10
4.222200
 20
-124.532965
 30
0.0
 10
4.186720
 20
-124.513435
 30
0.0
 10
4.151730
 20
-124.493045
 30
0.0
 10
4.117250
 20
-124.471805
 30
0.0
 10
4.083310
 20
-124.449715
 30
0.0
 10
4.049920
 20
-124.426805
 30
0.0
 10
4.017100
 20
-124.403085
 30
0.0
 10
3.984870
 20
-124.378565
 30
0.0
 10
3.953250
 20
-124.353265
 30
0.0
 10
3.922260
 20
-124.327185
 30
0.0
 10
3.891930
 20
-124.300365
 30
0.0
 10
3.862260
 20
-124.272805
 30
0.0
 10
3.833270
 20
-124.244525
 30
0.0
 10
3.804990
 20
-124.215535
 30
0.0
 10
3.777430
 20
-124.185865
 30
0.0
 10
3.750610
 20
-124.155535
 30
0.0
 10
3.724530
 20
-124.124545
 30
0.0
 10
3.699230
 20
-124.092925
 30
0.0
 10
3.674710
 20
-124.060695
 30
0.0
 10
3.650990
 20
-124.027875
 30
0.0
 10
3.628080
 20
-123.994485
 30
0.0
 10
3.605990
 20
-123.960545
 30
0.0
 10
3.584750
 20
-123.926065
 30
0.0
 10
3.564360
 20
-123.891075
 30
0.0
 10
3.544830
 20
-123.855595
 30
0.0
 10
3.526180
 20
-123.819655
 30
0.0
 10
3.508420
 20
-123.783265
 30
0.0
 10
3.491550
 20
-123.746445
 30
0.0
 10
3.475600
 20
-123.709225
 30
0.0
 10
3.460560
 20
-123.671625
 30
0.0
 10
3.446450
 20
-123.633665
 30
0.0
 10
3.433280
 20
-123.595365
 30
0.0
 10
3.421050
 20
-123.556765
 30
0.0
 10
3.409770
 20
-123.517875
 30
0.0
 10
3.399450
 20
-123.478715
 30
0.0
 10
3.390090
 20
-123.439315
 30
0.0
 10
3.381700
 20
-123.399695
 30
0.0
 10
3.374290
 20
-123.359885
 30
0.0
 10
3.367860
 20
-123.319905
 30
0.0
 10
3.362410
 20
-123.279775
 30
0.0
 10
3.357950
 20
-123.239525
 30
0.0
 10
3.354470
 20
-123.199175
 30
0.0
 10
3.351990
 20
-123.158755
 30
0.0
 10
3.350500
 20
-123.118285
 30
0.0
  0
LWPOLYLINE
  5
103
100
AcDbEntity
  8
0
 62
7
100
AcDbPolyline
 90
256
 70
1
 10
3.350000
 20
-203.077795
 30
0.0
 10
3.350500
 20
-203.037305
 30
0.0
 10
3.351990
 20
-202.996835
 30
0.0
 10
3.354470
 20
-202.956415
 30
0.0
 10
3.357950
 20
-202.916065
 30
0.0
 10
3.362410
 20
-202.875815
 30
0.0
 10
3.367860
 20
-202.835685
 30
0.0
 10
3.374290
 20
-202.795705
 30
0.0
 10
3.381700
 20
-202.755895
 30
0.0
 10
3.390090
 20
-202.716275
 30
0.0
 10
3.399450
 20
-202.676875
 30
0.0
 10
3.409770
 20
-202.637715
 30
0.0
 10
3.421050
 20
-202.598825
 30
0.0
 10
3.433280
 20
-202.560225
 30
0.0
 10
3.446450
 20
-202.521925
 30
0.0
 10
3.460560
 20
-202.483965
 30
0.0
 10
3.475600
 20
-202.446365
 30
0.0
 10
3.491550
 20
-202.409145
 30
0.0
 10
3.508420
 20
-202.372325
 30
0.0
 10
3.526180
 20
-202.335935
 30
0.0
 10
3.544830
 20
-202.299995
 30
0.0
 10
3.564360
 20
-202.264515
 30
0.0
 10
3.584750
 20
-202.229525
 30
0.0
 10
3.605990
 20
-202.195045
 30
0.0
 10
3.628080
 20
-202.161105
 30
0.0
 10
3.650990
 20
-202.127715
 30
0.0
 10
3.674710
 20
-202.094895
 30
0.0
 10
3.699230
 20
-202.062665
 30
0.0
 10
3.724530
 20
-202.031045
 30
0.0
 10
3.750610
 20
-202.000055
 30
0.0
 10
3.777430
 20
-201.969725
 30
0.0
 10
3.804990
 20
-201.940055
 30
0.0
 10
3.833270
 20
-201.911065
 30
0.0
 10
3.862260
 20
-201.882785
 30
0.0
 10
3.891930
 20
-201.855225
 30
0.0
 10
3.922260
 20
-201.828405
 30
0.0
 10
3.953250
 20
-201.802325
 30
0.0
 10
3.984870
 20
-201.777025
 30
0.0
 10
4.017100
 20
-201.752505
 30
0.0
 10
4.049920
 20
-201.728785
 30
0.0
 10
4.083310
 20
-201.705875
 30
0.0
 10
4.117250
 20
-201.683785
 30
0.0
 10
4.151730
 20
-201.662545
 30
0.0
 10
4.186720
 20
-201.642155
 30
0.0
 10
4.222200
 20
-201.622625
 30
0.0
 10
4.258140
 20
-201.603975
 30
0.0
 10
4.294530
 20
-201.586215
 30
0.0
 10
4.331350
 20
-201.569345
 30
0.0
 10
4.368570
 20
-201.553395
 30
0.0
 10
4.406170
 20
-201.538355
 30
0.0
 10
4.444130
 20
-201.524245
 30
0.0
 10
4.482430
 20
-201.511075
 30
0.0
 10
4.521030
 20
-201.498845
 30
0.0
 10
4.559920
 20
-201.487565
 30
0.0
 10
4.599080
 20
-201.477245
 30
0.0
 10
4.638480
 20
-201.467885
 30
0.0
 10
4.678100
 20
-201.459495
 30
0.0
 10
4.717910
 20
-201.452085
 30
0.0
 10
4.757890
 20
-201.445655
 30
0.0
 10
4.798020
 20
-201.440205
 30
0.0
 10
4.838270
 20
-201.435745
 30
0.0
 10
4.878620
 20
-201.432265
 30
0.0
 10
4.919040
 20
-201.429785
 30
0.0
 10
4.959510
 20
-201.428295
 30
0.0
 10
5.000000
 20
-201.427795
 30
0.0
 10
5.040490
 20
-201.428295
 30
0.0
 10
5.080960
 20
-201.429785
 30
0.0
 10
5.121380
 20
-201.432265
 30
0.0
 10
5.161730
 20
-201.435745
 30
0.0
 10
5.201980
 20
-201.440205
 30
0.0
 10
5.242110
 20
-201.445655
 30
0.0
 10
5.282090
 20
-201.452085
 30
0.0
 10
5.321900
 20
-201.459495
 30
0.0
 10
5.361520
 20
-201.467885
 30
0.0
 10
5.400920
 20
-201.477245
 30
0.0
 10
5.440080
 20
-201.487565
 30
0.0
 10
5.478970
 20
-201.498845
 30
0.0
 10
5.517570
 20
-201.511075
 30
0.0
 10
5.555870
 20
-201.524245
 30
0.0
 10
5.593830
 20
-201.538355
 30
0.0
 10
5.631430
 20
-201.553395
 30
0.0
 10
5.668650
 20
-201.569345
 30
0.0
 10
5.705470
 20
-201.586215
 30
0.0
 10
5.741860
 20
-201.603975
 30
0.0
 10
5.777800
 20
-201.622625
 30
0.0
 10
5.813280
 20
-201.642155
 30
0.0
 10
5.848270
 20
-201.662545
 30
0.0
 10
5.882750
 20
-201.683785
 30
0.0
 10
5.916690
 20
-201.705875
 30
0.0
 10
5.950080
 20
-201.728785
 30
0.0
 10
5.982900
 20
-201.752505
 30
0.0
 10
6.015130
 20
-201.777025
 30
0.0
 10
6.046750
 20
-201.802325
 30
0.0
 10
6.077740
 20
-201.828405
 30
0.0
 10
6.108070
 20
-201.855225
 30
0.0
 10
6.137740
 20
-201.882785
 30
0.0
 10
6.166730
 20
-201.911065
 30
0.0
 10
6.195010
 20
-201.940055
 30
0.0
 10
6.222570
 20
-201.969725
 30
0.0
 10
6.249390
 20
-202.000055
 30
0.0
 10
6.275470
 20
-202.031045
 30
0.0
 10
6.300770
 20
-202.062665
 30
0.0
 10
6.325290
 20
-202.094895
 30
0.0
 10
6.349010
 20
-202.127715
 30
0.0
 10
6.371920
 20
-202.161105
 30
0.0
 10
6.394010
 20
-202.195045
 30
0.0
 10
6.415250
 20
-202.229525
 30
0.0
 10
6.435640
 20
-202.264515
 30
0.0
 10
6.455170
 20
-202.299995
 30
0.0
 10
6.473820
 20
-202.335935
 30
0.0
 10
6.491580
 20
-202.372325
 30
0.0
 10
6.508450
 20
-202.409145
 30
0.0
 10
6.524400
 20
-202.446365
 30
0.0
 10
6.539440
 20
-202.483965
 30
0.0
 10
6.553550
 20
-202.521925
 30
0.0
 10
6.566720
 20
-202.560225
 30
0.0
 10
6.578950
 20
-202.598825
 30
0.0
 10
6.590230
 20
-202.637715
 30
0.0
 10
6.600550
 20
-202.676875
 30
0.0
 10
6.609910
 20
-202.716275
 30
0.0
 10
6.618300
 20
-202.755895
 30
0.0
 10
6.625710
 20
-202.795705
 30
0.0
 10
6.632140
 20
-202.835685
 30
0.0
 10
6.637590
 20
-202.875815
 30
0.0
 10
6.642050
 20
-202.916065
 30
0.0
 10
6.645530
 20
-202.956415
 30
0.0
 10
6.648010
 20
-202.996835
 30
0.0
 10
6.649500
 20
-203.037305
 30
0.0
 10
6.650000
 20
-203.077795
 30
0.0
 10
6.649500
 20
-203.118285
 30
0.0
 10
6.648010
 20
-203.158755
 30
0.0
 10
6.645530
 20
-203.199175
 30
0.0
 10
6.642050
 20
-203.239525
 30
0.0
 10
6.637590
 20
-203.279775
 30
0.0
 10
6.632140
 20
-203.319905
 30
0.0
 10
6.625710
 20
-203.359885
 30
0.0
 10
6.618300
 20
-203.399695
 30
0.0
 10
6.609910
 20
-203.439315
 30
0.0
 10
6.600550
 20
-203.478715
 30
0.0
 10
6.590230
 20
-203.517875
 30
0.0
 10
6.578950
 20
-203.556765
 30
0.0
 10
6.566720
 20
-203.595365
 30
0.0
 10
6.553550
 20
-203.633665
 30
0.0
 10
6.539440
 20
-203.671625
 30
0.0
 10
6.524400
 20
-203.709225
 30
0.0
 10
6.508450
 20
-203.746445
 30
0.0
 10
6.491580
 20
-203.783265
 30
0.0
 10
6.473820
 20
-203.819655
 30
0.0
 10
6.455170
 20
-203.855595
 30
0.0
 10
6.435640
 20
-203.891075
 30
0.0
 10
6.415250
 20
-203.926065
 30
0.0
 10
6.394010
 20
-203.960545
 30
0.0
 10
6.371920
 20
-203.994485
 30
0.0
 10
6.349010
 20
-204.027875
 30
0.0
 10
6.325290
 20
-204.060695
 30
0.0
 10
6.300770
 20
-204.092925
 30
0.0
 10
6.275470
 20
-204.124545
 30
0.0
 10
6.249390
 20
-204.155535
 30
0.0
 10
6.222570
 20
-204.185865
 30
0.0
 10
6.195010
 20
-204.215535
 30
0.0
 10
6.166730
 20
-204.244525
 30
0.0
 10
6.137740
 20
-204.272805
 30
0.0
 10
6.108070
 20
-204.300365
 30
0.0
 10
6.077740
 20
-204.327185
 30
0.0
 10
6.046750
 20
-204.353265
 30
0.0
 10
6.015130
 20
-204.378565
 30
0.0
 10
5.982900
 20
-204.403085
 30
0.0
 10
5.950080
 20
-204.426805
 30
0.0
 10
5.916690
 20
-204.449715
 30
0.0
 10
5.882750
 20
-204.471805
 30
0.0
 10
5.848270
 20
-204.493045
 30
0.0
 10
5.813280
 20
-204.513435
 30
0.0
 10
5.777800
 20
-204.532965
 30
0.0
 10
5.741860
 20
-204.551615
 30
0.0
 10
5.705470
 20
-204.569375
 30
0.0
 10
5.668650
 20
-204.586245
 30
0.0
 10
5.631430
 20
-204.602195
 30
0.0
 10
5.593830
 20
-204.617235
 30
0.0
 10
5.555870
 20
-204.631345
 30
0.0
 10
5.517570
 20
-204.644515
 30
0.0
 10
5.478970
 20
-204.656745
 30
0.0
 10
5.440080
 20
-204.668025
 30
0.0
 10
5.400920
 20
-204.678345
 30
0.0
 10
5.361520
 20
-204.687705
 30
0.0
 10
5.321900
 20
-204.696095
 30
0.0
 10
5.282090
 20
-204.703505
 30
0.0
 10
5.242110
 20
-204.709935
 30
0.0
 10
5.201980
 20
-204.715385
 30
0.0
 10
5.161730
 20
-204.719845
 30
0.0
 10
5.121380
 20
-204.723325
 30
0.0
 10
5.080960
 20
-204.725805
 30
0.0
 10
5.040490
 20
-204.727295
 30
0.0
 10
5.000000
 20
-204.727795
 30
0.0
 10
4.959510
 20
-204.727295
 30
0.0
 10
4.919040
 20
-204.725805
 30
0.0
 10
4.878620
 20
-204.723325
 30
0.0
 10
4.838270
 20
-204.719845
 30
0.0
 10
4.798020
 20
-204.715385
 30
0.0
 10
4.757890
 20
-204.709935
 30
0.0
 10
4.717910
 20
-204.703505
 30
0.0
 10
4.678100
 20
-204.696095
 30
0.0
 10
4.638480
 20
-204.687705
 30
0.0
 10
4.599080
 20
-204.678345
 30
0.0
 10
4.559920
 20
-204.668025
 30
0.0
 10
4.521030
 20
-204.656745
 30
0.0
 10
4.482430
 20
-204.644515
 30
0.0
 10
4.444130
 20
-204.631345
 30
0.0
 10
4.406170
 20
-204.617235
 30
0.0
 10
4.368570
 20
-204.602195
 30
0.0
 10
4.331350
 20
-204.586245
 30
0.0
 10
4.294530
 20
-204.569375
 30
0.0
 10
4.258140
 20
-204.551615
 30
0.0
 10
4.222200
 20
-204.532965
 30
0.0
 10
4.186720
 20
-204.513435
 30
0.0
 10
4.151730
 20
-204.493045
 30
0.0
 10
4.117250
 20
-204.471805
 30
0.0
 10
4.083310
 20
-204.449715
 30
0.0
 10
4.049920
 20
-204.426805
 30
0.0
 10
4.017100
 20
-204.403085
 30
0.0
 10
3.984870
 20
-204.378565
 30
0.0
 10
3.953250
 20
-204.353265
 30
0.0
 10
3.922260
 20
-204.327185
 30
0.0
 10
3.891930
 20
-204.300365
 30
0.0
 10
3.862260
 20
-204.272805
 30
0.0
 10
3.833270
 20
-204.244525
 30
0.0
 10
3.804990
 20
-204.215535
 30
0.0
 10
3.777430
 20
-204.185865
 30
0.0
 10
3.750610
 20
-204.155535
 30
0.0
 10
3.724530
 20
-204.124545
 30
0.0
 10
3.699230
 20
-204.092925
 30
0.0
 10
3.674710
 20
-204.060695
 30
0.0
 10
3.650990
 20
-204.027875
 30
0.0
 10
3.628080
 20
-203.994485
 30
0.0
 10
3.605990
 20
-203.960545
 30
0.0
 10
3.584750
 20
-203.926065
 30
0.0
 10
3.564360
 20
-203.891075
 30
0.0
 10
3.544830
 20
-203.855595
 30
0.0
 10
3.526180
 20
-203.819655
 30
0.0
 10
3.508420
 20
-203.783265
 30
0.0
 10
3.491550
 20
-203.746445
 30
0.0
 10
3.475600
 20
-203.709225
 30
0.0
 10
3.460560
 20
-203.671625
 30
0.0
 10
3.446450
 20
-203.633665
 30
0.0
 10
3.433280
 20
-203.595365
 30
0.0
 10
3.421050
 20
-203.556765
 30
0.0
 10
3.409770
 20
-203.517875
 30
0.0
 10
3.399450
 20
-203.478715
 30
0.0
 10
3.390090
 20
-203.439315
 30
0.0
 10
3.381700
 20
-203.399695
 30
0.0
 10
3.374290
 20
-203.359885
 30
0.0
 10
3.367860
 20
-203.319905
 30
0.0
 10
3.362410
 20
-203.279775
 30
0.0
 10
3.357950
 20
-203.239525
 30
0.0
 10
3.354470
 20
-203.199175
 30
0.0
 10
3.351990
 20
-203.158755
 30
0.0
 10
3.350500
 20
-203.118285
 30
0.0
  0
LWPOLYLINE
  5
104
100
AcDbEntity
  8
0
 62
7
100
AcDbPolyline
 90
256
 70
1
 10
298.350000
 20
-203.077795
 30
0.0
 10
298.350500
 20
-203.037305
 30
0.0
 10
298.351990
 20
-202.996835
 30
0.0
 10
298.354470
 20
-202.956415
 30
0.0
 10
298.357950
 20
-202.916065
 30
0.0
 10
298.362410
 20
-202.875815
 30
0.0
 10
298.367860
 20
-202.835685
 30
0.0
 10
298.374290
 20
-202.795705
 30
0.0
 10
298.381700
 20
-202.755895
 30
0.0
 10
298.390090
 20
-202.716275
 30
0.0
 10
298.399450
 20
-202.676875
 30
0.0
 10
298.409770
 20
-202.637715
 30
0.0
 10
298.421050
 20
-202.598825
 30
0.0
 10
298.433280
 20
-202.560225
 30
0.0
 10
298.446450
 20
-202.521925
 30
0.0
 10
298.460560
 20
-202.483965
 30
0.0
 10
298.475600
 20
-202.446365
 30
0.0
 10
298.491550
 20
-202.409145
 30
0.0
 10
298.508420
 20
-202.372325
 30
0.0
 10
298.526180
 20
-202.335935
 30
0.0
 10
298.544830
 20
-202.299995
 30
0.0
 10
298.564360
 20
-202.264515
 30
0.0
 10
298.584750
 20
-202.229525
 30
0.0
 10
298.605990
 20
-202.195045
 30
0.0
 10
298.628080
 20
-202.161105
 30
0.0
 10
298.650990
 20
-202.127715
 30
0.0
 10
298.674710
 20
-202.094895
 30
0.0
 10
298.699230
 20
-202.062665
 30
0.0
 10
298.724530
 20
-202.031045
 30
0.0
 10
298.750610
 20
-202.000055
 30
0.0
 10
298.777430
 20
-201.969725
 30
0.0
 10
298.804990
 20
-201.940055
 30
0.0
 10
298.833270
 20
-201.911065
 30
0.0
 10
298.862260
 20
-201.882785
 30
0.0
 10
298.891930
 20
-201.855225
 30
0.0
 10
298.922260
 20
-201.828405
 30
0.0
 10
298.953250
 20
-201.802325
 30
0.0
 10
298.984870
 20
-201.777025
 30
0.0
 10
299.017100
 20
-201.752505
 30
0.0
 10
299.049920
 20
-201.728785
 30
0.0
 10
299.083310
 20
-201.705875
 30
0.0
 10
299.117250
 20
-201.683785
 30
0.0
 10
299.151730
 20
-201.662545
 30
0.0
 10
299.186720
 20
-201.642155
 30
0.0
 10
299.222200
 20
-201.622625
 30
0.0
 10
299.258140
 20
-201.603975
 30
0.0
 10
299.294530
 20
-201.586215
 30
0.0
 10
299.331350
 20
-201.569345
 30
0.0
 10
299.368570
 20
-201.553395
 30
0.0
 10
299.406170
 20
-201.538355
 30
0.0
 10
299.444130
 20
-201.524245
 30
0.0
 10
299.482430
 20
-201.511075
 30
0.0
 10
299.521030
 20
-201.498845
 30
0.0
 10
299.559920
 20
-201.487565
 30
0.0
 10
299.599080
 20
-201.477245
 30
0.0
 10
299.638480
 20
-201.467885
 30
0.0
 10
299.678100
 20
-201.459495
 30
0.0
 10
299.717910
 20
-201.452085
 30
0.0
 10
299.757890
 20
-201.445655
 30
0.0
 10
299.798020
 20
-201.440205
 30
0.0
 10
299.838270
 20
-201.435745
 30
0.0
 10
299.878620
 20
-201.432265
 30
0.0
 10
299.919040
 20
-201.429785
 30
0.0
 10
299.959510
 20
-201.428295
 30
0.0
 10
300.000000
 20
-201.427795
 30
0.0
 10
300.040490
 20
-201.428295
 30
0.0
 10
300.080960
 20
-201.429785
 30
0.0
 10
300.121380
 20
-201.432265
 30
0.0
 10
300.161730
 20
-201.435745
 30
0.0
 10
300.201980
 20
-201.440205
 30
0.0
 10
300.242110
 20
-201.445655
 30
0.0
 10
300.282090
 20
-201.452085
 30
0.0
 10
300.321900
 20
-201.459495
 30
0.0
 10
300.361520
 20
-201.467885
 30
0.0
 10
300.400920
 20
-201.477245
 30
0.0
 10
300.440080
 20
-201.487565
 30
0.0
 10
300.478970
 20
-201.498845
 30
0.0
 10
300.517570
 20
-201.511075
 30
0.0
 10
300.555870
 20
-201.524245
 30
0.0
 10
300.593830
 20
-201.538355
 30
0.0
 10
300.631430
 20
-201.553395
 30
0.0
 10
300.668650
 20
-201.569345
 30
0.0
 10
300.705470
 20
-201.586215
 30
0.0
 10
300.741860
 20
-201.603975
 30
0.0
 10
300.777800
 20
-201.622625
 30
0.0
 10
300.813280
 20
-201.642155
 30
0.0
 10
300.848270
 20
-201.662545
 30
0.0
 10
300.882750
 20
-201.683785
 30
0.0
 10
300.916690
 20
-201.705875
 30
0.0
 10
300.950080
 20
-201.728785
 30
0.0
 10
300.982900
 20
-201.752505
 30
0.0
 10
301.015130
 20
-201.777025
 30
0.0
 10
301.046750
 20
-201.802325
 30
0.0
 10
301.077740
 20
-201.828405
 30
0.0
 10
301.108070
 20
-201.855225
 30
0.0
 10
301.137740
 20
-201.882785
 30
0.0
 10
301.166730
 20
-201.911065
 30
0.0
 10
301.195010
 20
-201.940055
 30
0.0
 10
301.222570
 20
-201.969725
 30
0.0
 10
301.249390
 20
-202.000055
 30
0.0
 10
301.275470
 20
-202.031045
 30
0.0
 10
301.300770
 20
-202.062665
 30
0.0
 10
301.325290
 20
-202.094895
 30
0.0
 10
301.349010
 20
-202.127715
 30
0.0
 10
301.371920
 20
-202.161105
 30
0.0
 10
301.394010
 20
-202.195045
 30
0.0
 10
301.415250
 20
-202.229525
 30
0.0
 10
301.435640
 20
-202.264515
 30
0.0
 10
301.455170
 20
-202.299995
 30
0.0
 10
301.473820
 20
-202.335935
 30
0.0
 10
301.491580
 20
-202.372325
 30
0.0
 10
301.508450
 20
-202.409145
 30
0.0
 10
301.524400
 20
-202.446365
 30
0.0
 10
301.539440
 20
-202.483965
 30
0.0
 10
301.553550
 20
-202.521925
 30
0.0
 10
301.566720
 20
-202.560225
 30
0.0
 10
301.578950
 20
-202.598825
 30
0.0
 10
301.590230
 20
-202.637715
 30
0.0
 10
301.600550
 20
-202.676875
 30
0.0
 10
301.609910
 20
-202.716275
 30
0.0
 10
301.618300
 20
-202.755895
 30
0.0
 10
301.625710
 20
-202.795705
 30
0.0
 10
301.632140
 20
-202.835685
 30
0.0
 10
301.637590
 20
-202.875815
 30
0.0
 10
301.642050
 20
-202.916065
 30
0.0
 10
301.645530
 20
-202.956415
 30
0.0
 10
301.648010
 20
-202.996835
 30
0.0
 10
301.649500
 20
-203.037305
 30
0.0
 10
301.650000
 20
-203.077795
 30
0.0
 10
301.649500
 20
-203.118285
 30
0.0
 10
301.648010
 20
-203.158755
 30
0.0
 10
301.645530
 20
-203.199175
 30
0.0
 10
301.642050
 20
-203.239525
 30
0.0
 10
301.637590
 20
-203.279775
 30
0.0
 10
301.632140
 20
-203.319905
 30
0.0
 10
301.625710
 20
-203.359885
 30
0.0
 10
301.618300
 20
-203.399695
 30
0.0
 10
301.609910
 20
-203.439315
 30
0.0
 10
301.600550
 20
-203.478715
 30
0.0
 10
301.590230
 20
-203.517875
 30
0.0
 10
301.578950
 20
-203.556765
 30
0.0
 10
301.566720
 20
-203.595365
 30
0.0
 10
301.553550
 20
-203.633665
 30
0.0
 10
301.539440
 20
-203.671625
 30
0.0
 10
301.524400
 20
-203.709225
 30
0.0
 10
301.508450
 20
-203.746445
 30
0.0
 10
301.491580
 20
-203.783265
 30
0.0
 10
301.473820
 20
-203.819655
 30
0.0
 10
301.455170
 20
-203.855595
 30
0.0
 10
301.435640
 20
-203.891075
 30
0.0
 10
301.415250
 20
-203.926065
 30
0.0
 10
301.394010
 20
-203.960545
 30
0.0
 10
301.371920
 20
-203.994485
 30
0.0
 10
301.349010
 20
-204.027875
 30
0.0
 10
301.325290
 20
-204.060695
 30
0.0
 10
301.300770
 20
-204.092925
 30
0.0
 10
301.275470
 20
-204.124545
 30
0.0
 10
301.249390
 20
-204.155535
 30
0.0
 10
301.222570
 20
-204.185865
 30
0.0
 10
301.195010
 20
-204.215535
 30
0.0
 10
301.166730
 20
-204.244525
 30
0.0
 10
301.137740
 20
-204.272805
 30
0.0
 10
301.108070
 20
-204.300365
 30
0.0
 10
301.077740
 20
-204.327185
 30
0.0
 10
301.046750
 20
-204.353265
 30
0.0
 10
301.015130
 20
-204.378565
 30
0.0
 10
300.982900
 20
-204.403085
 30
0.0
 10
300.950080
 20
-204.426805
 30
0.0
 10
300.916690
 20
-204.449715
 30
0.0
 10
300.882750
 20
-204.471805
 30
0.0
 10
300.848270
 20
-204.493045
 30
0.0
 10
300.813280
 20
-204.513435
 30
0.0
 10
300.777800
 20
-204.532965
 30
0.0
 10
300.741860
 20
-204.551615
 30
0.0
 10
300.705470
 20
-204.569375
 30
0.0
 10
300.668650
 20
-204.586245
 30
0.0
 10
300.631430
 20
-204.602195
 30
0.0
 10
300.593830
 20
-204.617235
 30
0.0
 10
300.555870
 20
-204.631345
 30
0.0
 10
300.517570
 20
-204.644515
 30
0.0
 10
300.478970
 20
-204.656745
 30
0.0
 10
300.440080
 20
-204.668025
 30
0.0
 10
300.400920
 20
-204.678345
 30
0.0
 10
300.361520
 20
-204.687705
 30
0.0
 10
300.321900
 20
-204.696095
 30
0.0
 10
300.282090
 20
-204.703505
 30
0.0
 10
300.242110
 20
-204.709935
 30
0.0
 10
300.201980
 20
-204.715385
 30
0.0
 10
300.161730
 20
-204.719845
 30
0.0
 10
300.121380
 20
-204.723325
 30
0.0
 10
300.080960
 20
-204.725805
 30
0.0
 10
300.040490
 20
-204.727295
 30
0.0
 10
300.000000
 20
-204.727795
 30
0.0
 10
299.959510
 20
-204.727295
 30
0.0
 10
299.919040
 20
-204.725805
 30
0.0
 10
299.878620
 20
-204.723325
 30
0.0
 10
299.838270
 20
-204.719845
 30
0.0
 10
299.798020
 20
-204.715385
 30
0.0
 10
299.757890
 20
-204.709935
 30
0.0
 10
299.717910
 20
-204.703505
 30
0.0
 10
299.678100
 20
-204.696095
 30
0.0
 10
299.638480
 20
-204.687705
 30
0.0
 10
299.599080
 20
-204.678345
 30
0.0
 10
299.559920
 20
-204.668025
 30
0.0
 10
299.521030
 20
-204.656745
 30
0.0
 10
299.482430
 20
-204.644515
 30
0.0
 10
299.444130
 20
-204.631345
 30
0.0
 10
299.406170
 20
-204.617235
 30
0.0
 10
299.368570
 20
-204.602195
 30
0.0
 10
299.331350
 20
-204.586245
 30
0.0
 10
299.294530
 20
-204.569375
 30
0.0
 10
299.258140
 20
-204.551615
 30
0.0
 10
299.222200
 20
-204.532965
 30
0.0
 10
299.186720
 20
-204.513435
 30
0.0
 10
299.151730
 20
-204.493045
 30
0.0
 10
299.117250
 20
-204.471805
 30
0.0
 10
299.083310
 20
-204.449715
 30
0.0
 10
299.049920
 20
-204.426805
 30
0.0
 10
299.017100
 20
-204.403085
 30
0.0
 10
298.984870
 20
-204.378565
 30
0.0
 10
298.953250
 20
-204.353265
 30
0.0
 10
298.922260
 20
-204.327185
 30
0.0
 10
298.891930
 20
-204.300365
 30
0.0
 10
298.862260
 20
-204.272805
 30
0.0
 10
298.833270
 20
-204.244525
 30
0.0
 10
298.804990
 20
-204.215535
 30
0.0
 10
298.777430
 20
-204.185865
 30
0.0
 10
298.750610
 20
-204.155535
 30
0.0
 10
298.724530
 20
-204.124545
 30
0.0
 10
298.699230
 20
-204.092925
 30
0.0
 10
298.674710
 20
-204.060695
 30
0.0
 10
298.650990
 20
-204.027875
 30
0.0
 10
298.628080
 20
-203.994485
 30
0.0
 10
298.605990
 20
-203.960545
 30
0.0
 10
298.584750
 20
-203.926065
 30
0.0
 10
298.564360
 20
-203.891075
 30
0.0
 10
298.544830
 20
-203.855595
 30
0.0
 10
298.526180
 20
-203.819655
 30
0.0
 10
298.508420
 20
-203.783265
 30
0.0
 10
298.491550
 20
-203.746445
 30
0.0
 10
298.475600
 20
-203.709225
 30
0.0
 10
298.460560
 20
-203.671625
 30
0.0
 10
298.446450
 20
-203.633665
 30
0.0
 10
298.433280
 20
-203.595365
 30
0.0
 10
298.421050
 20
-203.556765
 30
0.0
 10
298.409770
 20
-203.517875
 30
0.0
 10
298.399450
 20
-203.478715
 30
0.0
 10
298.390090
 20
-203.439315
 30
0.0
 10
298.381700
 20
-203.399695
 30
0.0
 10
298.374290
 20
-203.359885
 30
0.0
 10
298.367860
 20
-203.319905
 30
0.0
 10
298.362410
 20
-203.279775
 30
0.0
 10
298.357950
 20
-203.239525
 30
0.0
 10
298.354470
 20
-203.199175
 30
0.0
 10
298.351990
 20
-203.158755
 30
0.0
 10
298.350500
 20
-203.118285
 30
0.0
  0
LWPOLYLINE
  5
105
100
AcDbEntity
  8
0
 62
7
100
AcDbPolyline
 90
256
 70
1
 10
298.350000
 20
-123.077795
 30
0.0
 10
298.350500
 20
-123.037305
 30
0.0
 10
298.351990
 20
-122.996835
 30
0.0
 10
298.354470
 20
-122.956415
 30
0.0
 10
298.357950
 20
-122.916065
 30
0.0
 10
298.362410
 20
-122.875815
 30
0.0
 10
298.367860
 20
-122.835685
 30
0.0
 10
298.374290
 20
-122.795705
 30
0.0
 10
298.381700
 20
-122.755895
 30
0.0
 10
298.390090
 20
-122.716275
 30
0.0
 10
298.399450
 20
-122.676875
 30
0.0
 10
298.409770
 20
-122.637715
 30
0.0
 10
298.421050
 20
-122.598825
 30
0.0
 10
298.433280
 20
-122.560225
 30
0.0
 10
298.446450
 20
-122.521925
 30
0.0
 10
298.460560
 20
-122.483965
 30
0.0
 10
298.475600
 20
-122.446365
 30
0.0
 10
298.491550
 20
-122.409145
 30
0.0
 10
298.508420
 20
-122.372325
 30
0.0
 10
298.526180
 20
-122.335935
 30
0.0
 10
298.544830
 20
-122.299995
 30
0.0
 10
298.564360
 20
-122.264515
 30
0.0
 10
298.584750
 20
-122.229525
 30
0.0
 10
298.605990
 20
-122.195045
 30
0.0
 10
298.628080
 20
-122.161105
 30
0.0
 10
298.650990
 20
-122.127715
 30
0.0
 10
298.674710
 20
-122.094895
 30
0.0
 10
298.699230
 20
-122.062665
 30
0.0
 10
298.724530
 20
-122.031045
 30
0.0
 10
298.750610
 20
-122.000055
 30
0.0
 10
298.777430
 20
-121.969725
 30
0.0
 10
298.804990
 20
-121.940055
 30
0.0
 10
298.833270
 20
-121.911065
 30
0.0
 10
298.862260
 20
-121.882785
 30
0.0
 10
298.891930
 20
-121.855225
 30
0.0
 10
298.922260
 20
-121.828405
 30
0.0
 10
298.953250
 20
-121.802325
 30
0.0
 10
298.984870
 20
-121.777025
 30
0.0
 10
299.017100
 20
-121.752505
 30
0.0
 10
299.049920
 20
-121.728785
 30
0.0
 10
299.083310
 20
-121.705875
 30
0.0
 10
299.117250
 20
-121.683785
 30
0.0
 10
299.151730
 20
-121.662545
 30
0.0
 10
299.186720
 20
-121.642155
 30
0.0
 10
299.222200
 20
-121.622625
 30
0.0
 10
299.258140
 20
-121.603975
 30
0.0
 10
299.294530
 20
-121.586215
 30
0.0
 10
299.331350
 20
-121.569345
 30
0.0
 10
299.368570
 20
-121.553395
 30
0.0
 10
299.406170
 20
-121.538355
 30
0.0
 10
299.444130
 20
-121.524245
 30
0.0
 10
299.482430
 20
-121.511075
 30
0.0
 10
299.521030
 20
-121.498845
 30
0.0
 10
299.559920
 20
-121.487565
 30
0.0
 10
299.599080
 20
-121.477245
 30
0.0
 10
299.638480
 20
-121.467885
 30
0.0
 10
299.678100
 20
-121.459495
 30
0.0
 10
299.717910
 20
-121.452085
 30
0.0
 10
299.757890
 20
-121.445655
 30
0.0
 10
299.798020
 20
-121.440205
 30
0.0
 10
299.838270
 20
-121.435745
 30
0.0
 10
299.878620
 20
-121.432265
 30
0.0
 10
299.919040
 20
-121.429785
 30
0.0
 10
299.959510
 20
-121.428295
 30
0.0
 10
300.000000
 20
-121.427795
 30
0.0
 10
300.040490
 20
-121.428295
 30
0.0
 10
300.080960
 20
-121.429785
 30
0.0
 10
300.121380
 20
-121.432265
 30
0.0
 10
300.161730
 20
-121.435745
 30
0.0
 10
300.201980
 20
-121.440205
 30
0.0
 10
300.242110
 20
-121.445655
 30
0.0
 10
300.282090
 20
-121.452085
 30
0.0
 10
300.321900
 20
-121.459495
 30
0.0
 10
300.361520
 20
-121.467885
 30
0.0
 10
300.400920
 20
-121.477245
 30
0.0
 10
300.440080
 20
-121.487565
 30
0.0
 10
300.478970
 20
-121.498845
 30
0.0
 10
300.517570
 20
-121.511075
 30
0.0
 10
300.555870
 20
-121.524245
 30
0.0
 10
300.593830
 20
-121.538355
 30
0.0
 10
300.631430
 20
-121.553395
 30
0.0
 10
300.668650
 20
-121.569345
 30
0.0
 10
300.705470
 20
-121.586215
 30
0.0
 10
300.741860
 20
-121.603975
 30
0.0
 10
300.777800
 20
-121.622625
 30
0.0
 10
300.813280
 20
-121.642155
 30
0.0
 10
300.848270
 20
-121.662545
 30
0.0
 10
300.882750
 20
-121.683785
 30
0.0
 10
300.916690
 20
-121.705875
 30
0.0
 10
300.950080
 20
-121.728785
 30
0.0
 10
300.982900
 20
-121.752505
 30
0.0
 10
301.015130
 20
-121.777025
 30
0.0
 10
301.046750
 20
-121.802325
 30
0.0
 10
301.077740
 20
-121.828405
 30
0.0
 10
301.108070
 20
-121.855225
 30
0.0
 10
301.137740
 20
-121.882785
 30
0.0
 10
301.166730
 20
-121.911065
 30
0.0
 10
301.195010
 20
-121.940055
 30
0.0
 10
301.222570
 20
-121.969725
 30
0.0
 10
301.249390
 20
-122.000055
 30
0.0
 10
301.275470
 20
-122.031045
 30
0.0
 10
301.300770
 20
-122.062665
 30
0.0
 10
301.325290
 20
-122.094895
 30
0.0
 10
301.349010
 20
-122.127715
 30
0.0
 10
301.371920
 20
-122.161105
 30
0.0
 10
301.394010
 20
-122.195045
 30
0.0
 10
301.415250
 20
-122.229525
 30
0.0
 10
301.435640
 20
-122.264515
 30
0.0
 10
301.455170
 20
-122.299995
 30
0.0
 10
301.473820
 20
-122.335935
 30
0.0
 10
301.491580
 20
-122.372325
 30
0.0
 10
301.508450
 20
-122.409145
 30
0.0
 10
301.524400
 20
-122.446365
 30
0.0
 10
301.539440
 20
-122.483965
 30
0.0
 10
301.553550
 20
-122.521925
 30
0.0
 10
301.566720
 20
-122.560225
 30
0.0
 10
301.578950
 20
-122.598825
 30
0.0
 10
301.590230
 20
-122.637715
 30
0.0
 10
301.600550
 20
-122.676875
 30
0.0
 10
301.609910
 20
-122.716275
 30
0.0
 10
301.618300
 20
-122.755895
 30
0.0
 10
301.625710
 20
-122.795705
 30
0.0
 10
301.632140
 20
-122.835685
 30
0.0
 10
301.637590
 20
-122.875815
 30
0.0
 10
301.642050
 20
-122.916065
 30
0.0
 10
301.645530
 20
-122.956415
 30
0.0
 10
301.648010
 20
-122.996835
 30
0.0
 10
301.649500
 20
-123.037305
 30
0.0
 10
301.650000
 20
-123.077795
 30
0.0
 10
301.649500
 20
-123.118285
 30
0.0
 10
301.648010
 20
-123.158755
 30
0.0
 10
301.645530
 20
-123.199175
 30
0.0
 10
301.642050
 20
-123.239525
 30
0.0
 10
301.637590
 20
-123.279775
 30
0.0
 10
301.632140
 20
-123.319905
 30
0.0
 10
301.625710
 20
-123.359885
 30
0.0
 10
301.618300
 20
-123.399695
 30
0.0
 10
301.609910
 20
-123.439315
 30
0.0
 10
301.600550
 20
-123.478715
 30
0.0
 10
301.590230
 20
-123.517875
 30
0.0
 10
301.578950
 20
-123.556765
 30
0.0
 10
301.566720
 20
-123.595365
 30
0.0
 10
301.553550
 20
-123.633665
 30
0.0
 10
301.539440
 20
-123.671625
 30
0.0
 10
301.524400
 20
-123.709225
 30
0.0
 10
301.508450
 20
-123.746445
 30
0.0
 10
301.491580
 20
-123.783265
 30
0.0
 10
301.473820
 20
-123.819655
 30
0.0
 10
301.455170
 20
-123.855595
 30
0.0
 10
301.435640
 20
-123.891075
 30
0.0
 10
301.415250
 20
-123.926065
 30
0.0
 10
301.394010
 20
-123.960545
 30
0.0
 10
301.371920
 20
-123.994485
 30
0.0
 10
301.349010
 20
-124.027875
 30
0.0
 10
301.325290
 20
-124.060695
 30
0.0
 10
301.300770
 20
-124.092925
 30
0.0
 10
301.275470
 20
-124.124545
 30
0.0
 10
301.249390
 20
-124.155535
 30
0.0
 10
301.222570
 20
-124.185865
 30
0.0
 10
301.195010
 20
-124.215535
 30
0.0
 10
301.166730
 20
-124.244525
 30
0.0
 10
301.137740
 20
-124.272805
 30
0.0
 10
301.108070
 20
-124.300365
 30
0.0
 10
301.077740
 20
-124.327185
 30
0.0
 10
301.046750
 20
-124.353265
 30
0.0
 10
301.015130
 20
-124.378565
 30
0.0
 10
300.982900
 20
-124.403085
 30
0.0
 10
300.950080
 20
-124.426805
 30
0.0
 10
300.916690
 20
-124.449715
 30
0.0
 10
300.882750
 20
-124.471805
 30
0.0
 10
300.848270
 20
-124.493045
 30
0.0
 10
300.813280
 20
-124.513435
 30
0.0
 10
300.777800
 20
-124.532965
 30
0.0
 10
300.741860
 20
-124.551615
 30
0.0
 10
300.705470
 20
-124.569375
 30
0.0
 10
300.668650
 20
-124.586245
 30
0.0
 10
300.631430
 20
-124.602195
 30
0.0
 10
300.593830
 20
-124.617235
 30
0.0
 10
300.555870
 20
-124.631345
 30
0.0
 10
300.517570
 20
-124.644515
 30
0.0
 10
300.478970
 20
-124.656745
 30
0.0
 10
300.440080
 20
-124.668025
 30
0.0
 10
300.400920
 20
-124.678345
 30
0.0
 10
300.361520
 20
-124.687705
 30
0.0
 10
300.321900
 20
-124.696095
 30
0.0
 10
300.282090
 20
-124.703505
 30
0.0
 10
300.242110
 20
-124.709935
 30
0.0
 10
300.201980
 20
-124.715385
 30
0.0
 10
300.161730
 20
-124.719845
 30
0.0
 10
300.121380
 20
-124.723325
 30
0.0
 10
300.080960
 20
-124.725805
 30
0.0
 10
300.040490
 20
-124.727295
 30
0.0
 10
300.000000
 20
-124.727795
 30
0.0
 10
299.959510
 20
-124.727295
 30
0.0
 10
299.919040
 20
-124.725805
 30
0.0
 10
299.878620
 20
-124.723325
 30
0.0
 10
299.838270
 20
-124.719845
 30
0.0
 10
299.798020
 20
-124.715385
 30
0.0
 10
299.757890
 20
-124.709935
 30
0.0
 10
299.717910
 20
-124.703505
 30
0.0
 10
299.678100
 20
-124.696095
 30
0.0
 10
299.638480
 20
-124.687705
 30
0.0
 10
299.599080
 20
-124.678345
 30
0.0
 10
299.559920
 20
-124.668025
 30
0.0
 10
299.521030
 20
-124.656745
 30
0.0
 10
299.482430
 20
-124.644515
 30
0.0
 10
299.444130
 20
-124.631345
 30
0.0
 10
299.406170
 20
-124.617235
 30
0.0
 10
299.368570
 20
-124.602195
 30
0.0
 10
299.331350
 20
-124.586245
 30
0.0
 10
299.294530
 20
-124.569375
 30
0.0
 10
299.258140
 20
-124.551615
 30
0.0
 10
299.222200
 20
-124.532965
 30
0.0
 10
299.186720
 20
-124.513435
 30
0.0
 10
299.151730
 20
-124.493045
 30
0.0
 10
299.117250
 20
-124.471805
 30
0.0
 10
299.083310
 20
-124.449715
 30
0.0
 10
299.049920
 20
-124.426805
 30
0.0
 10
299.017100
 20
-124.403085
 30
0.0
 10
298.984870
 20
-124.378565
 30
0.0
 10
298.953250
 20
-124.353265
 30
0.0
 10
298.922260
 20
-124.327185
 30
0.0
 10
298.891930
 20
-124.300365
 30
0.0
 10
298.862260
 20
-124.272805
 30
0.0
 10
298.833270
 20
-124.244525
 30
0.0
 10
298.804990
 20
-124.215535
 30
0.0
 10
298.777430
 20
-124.185865
 30
0.0
 10
298.750610
 20
-124.155535
 30
0.0
 10
298.724530
 20
-124.124545
 30
0.0
 10
298.699230
 20
-124.092925
 30
0.0
 10
298.674710
 20
-124.060695
 30
0.0
 10
298.650990
 20
-124.027875
 30
0.0
 10
298.628080
 20
-123.994485
 30
0.0
 10
298.605990
 20
-123.960545
 30
0.0
 10
298.584750
 20
-123.926065
 30
0.0
 10
298.564360
 20
-123.891075
 30
0.0
 10
298.544830
 20
-123.855595
 30
0.0
 10
298.526180
 20
-123.819655
 30
0.0
 10
298.508420
 20
-123.783265
 30
0.0
 10
298.491550
 20
-123.746445
 30
0.0
 10
298.475600
 20
-123.709225
 30
0.0
 10
298.460560
 20
-123.671625
 30
0.0
 10
298.446450
 20
-123.633665
 30
0.0
 10
298.433280
 20
-123.595365
 30
0.0
 10
298.421050
 20
-123.556765
 30
0.0
 10
298.409770
 20
-123.517875
 30
0.0
 10
298.399450
 20
-123.478715
 30
0.0
 10
298.390090
 20
-123.439315
 30
0.0
 10
298.381700
 20
-123.399695
 30
0.0
 10
298.374290
 20
-123.359885
 30
0.0
 10
298.367860
 20
-123.319905
 30
0.0
 10
298.362410
 20
-123.279775
 30
0.0
 10
298.357950
 20
-123.239525
 30
0.0
 10
298.354470
 20
-123.199175
 30
0.0
 10
298.351990
 20
-123.158755
 30
0.0
 10
298.350500
 20
-123.118285
 30
0.0
  0
LWPOLYLINE
  5
106
100
AcDbEntity
  8
0
 62
7
100
AcDbPolyline
 90
256
 70
1
 10
298.350000
 20
-43.077795
 30
0.0
 10
298.350500
 20
-43.037305
 30
0.0
 10
298.351990
 20
-42.996835
 30
0.0
 10
298.354470
 20
-42.956415
 30
0.0
 10
298.357950
 20
-42.916065
 30
0.0
 10
298.362410
 20
-42.875815
 30
0.0
 10
298.367860
 20
-42.835685
 30
0.0
 10
298.374290
 20
-42.795705
 30
0.0
 10
298.381700
 20
-42.755895
 30
0.0
 10
298.390090
 20
-42.716275
 30
0.0
 10
298.399450
 20
-42.676875
 30
0.0
 10
298.409770
 20
-42.637715
 30
0.0
 10
298.421050
 20
-42.598825
 30
0.0
 10
298.433280
 20
-42.560225
 30
0.0
 10
298.446450
 20
-42.521925
 30
0.0
 10
298.460560
 20
-42.483965
 30
0.0
 10
298.475600
 20
-42.446365
 30
0.0
 10
298.491550
 20
-42.409145
 30
0.0
 10
298.508420
 20
-42.372325
 30
0.0
 10
298.526180
 20
-42.335935
 30
0.0
 10
298.544830
 20
-42.299995
 30
0.0
 10
298.564360
 20
-42.264515
 30
0.0
 10
298.584750
 20
-42.229525
 30
0.0
 10
298.605990
 20
-42.195045
 30
0.0
 10
298.628080
 20
-42.161105
 30
0.0
 10
298.650990
 20
-42.127715
 30
0.0
 10
298.674710
 20
-42.094895
 30
0.0
 10
298.699230
 20
-42.062665
 30
0.0
 10
298.724530
 20
-42.031045
 30
0.0
 10
298.750610
 20
-42.000055
 30
0.0
 10
298.777430
 20
-41.969725
 30
0.0
 10
298.804990
 20
-41.940055
 30
0.0
 10
298.833270
 20
-41.911065
 30
0.0
 10
298.862260
 20
-41.882785
 30
0.0
 10
298.891930
 20
-41.855225
 30
0.0
 10
298.922260
 20
-41.828405
 30
0.0
 10
298.953250
 20
-41.802325
 30
0.0
 10
298.984870
 20
-41.777025
 30
0.0
 10
299.017100
 20
-41.752505
 30
0.0
 10
299.049920
 20
-41.728785
 30
0.0
 10
299.083310
 20
-41.705875
 30
0.0
 10
299.117250
 20
-41.683785
 30
0.0
 10
299.151730
 20
-41.662545
 30
0.0
 10
299.186720
 20
-41.642155
 30
0.0
 10
299.222200
 20
-41.622625
 30
0.0
 10
299.258140
 20
-41.603975
 30
0.0
 10
299.294530
 20
-41.586215
 30
0.0
 10
299.331350
 20
-41.569345
 30
0.0
 10
299.368570
 20
-41.553395
 30
0.0
 10
299.406170
 20
-41.538355
 30
0.0
 10
299.444130
 20
-41.524245
 30
0.0
 10
299.482430
 20
-41.511075
 30
0.0
 10
299.521030
 20
-41.498845
 30
0.0
 10
299.559920
 20
-41.487565
 30
0.0
 10
299.599080
 20
-41.477245
 30
0.0
 10
299.638480
 20
-41.467885
 30
0.0
 10
299.678100
 20
-41.459495
 30
0.0
 10
299.717910
 20
-41.452085
 30
0.0
 10
299.757890
 20
-41.445655
 30
0.0
 10
299.798020
 20
-41.440205
 30
0.0
 10
299.838270
 20
-41.435745
 30
0.0
 10
299.878620
 20
-41.432265
 30
0.0
 10
299.919040
 20
-41.429785
 30
0.0
 10
299.959510
 20
-41.428295
 30
0.0
 10
300.000000
 20
-41.427795
 30
0.0
 10
300.040490
 20
-41.428295
 30
0.0
 10
300.080960
 20
-41.429785
 30
0.0
 10
300.121380
 20
-41.432265
 30
0.0
 10
300.161730
 20
-41.435745
 30
0.0
 10
300.201980
 20
-41.440205
 30
0.0
 10
300.242110
 20
-41.445655
 30
0.0
 10
300.282090
 20
-41.452085
 30
0.0
 10
300.321900
 20
-41.459495
 30
0.0
 10
300.361520
 20
-41.467885
 30
0.0
 10
300.400920
 20
-41.477245
 30
0.0
 10
300.440080
 20
-41.487565
 30
0.0
 10
300.478970
 20
-41.498845
 30
0.0
 10
300.517570
 20
-41.511075
 30
0.0
 10
300.555870
 20
-41.524245
 30
0.0
 10
300.593830
 20
-41.538355
 30
0.0
 10
300.631430
 20
-41.553395
 30
0.0
 10
300.668650
 20
-41.569345
 30
0.0
 10
300.705470
 20
-41.586215
 30
0.0
 10
300.741860
 20
-41.603975
 30
0.0
 10
300.777800
 20
-41.622625
 30
0.0
 10
300.813280
 20
-41.642155
 30
0.0
 10
300.848270
 20
-41.662545
 30
0.0
 10
300.882750
 20
-41.683785
 30
0.0
 10
300.916690
 20
-41.705875
 30
0.0
 10
300.950080
 20
-41.728785
 30
0.0
 10
300.982900
 20
-41.752505
 30
0.0
 10
301.015130
 20
-41.777025
 30
0.0
 10
301.046750
 20
-41.802325
 30
0.0
 10
301.077740
 20
-41.828405
 30
0.0
 10
301.108070
 20
-41.855225
 30
0.0
 10
301.137740
 20
-41.882785
 30
0.0
 10
301.166730
 20
-41.911065
 30
0.0
 10
301.195010
 20
-41.940055
 30
0.0
 10
301.222570
 20
-41.969725
 30
0.0
 10
301.249390
 20
-42.000055
 30
0.0
 10
301.275470
 20
-42.031045
 30
0.0
 10
301.300770
 20
-42.062665
 30
0.0
 10
301.325290
 20
-42.094895
 30
0.0
 10
301.349010
 20
-42.127715
 30
0.0
 10
301.371920
 20
-42.161105
 30
0.0
 10
301.394010
 20
-42.195045
 30
0.0
 10
301.415250
 20
-42.229525
 30
0.0
 10
301.435640
 20
-42.264515
 30
0.0
 10
301.455170
 20
-42.299995
 30
0.0
 10
301.473820
 20
-42.335935
 30
0.0
 10
301.491580
 20
-42.372325
 30
0.0
 10
301.508450
 20
-42.409145
 30
0.0
 10
301.524400
 20
-42.446365
 30
0.0
 10
301.539440
 20
-42.483965
 30
0.0
 10
301.553550
 20
-42.521925
 30
0.0
 10
301.566720
 20
-42.560225
 30
0.0
 10
301.578950
 20
-42.598825
 30
0.0
 10
301.590230
 20
-42.637715
 30
0.0
 10
301.600550
 20
-42.676875
 30
0.0
 10
301.609910
 20
-42.716275
 30
0.0
 10
301.618300
 20
-42.755895
 30
0.0
 10
301.625710
 20
-42.795705
 30
0.0
 10
301.632140
 20
-42.835685
 30
0.0
 10
301.637590
 20
-42.875815
 30
0.0
 10
301.642050
 20
-42.916065
 30
0.0
 10
301.645530
 20
-42.956415
 30
0.0
 10
301.648010
 20
-42.996835
 30
0.0
 10
301.649500
 20
-43.037305
 30
0.0
 10
301.650000
 20
-43.077795
 30
0.0
 10
301.649500
 20
-43.118285
 30
0.0
 10
301.648010
 20
-43.158755
 30
0.0
 10
301.645530
 20
-43.199175
 30
0.0
 10
301.642050
 20
-43.239525
 30
0.0
 10
301.637590
 20
-43.279775
 30
0.0
 10
301.632140
 20
-43.319905
 30
0.0
 10
301.625710
 20
-43.359885
 30
0.0
 10
301.618300
 20
-43.399695
 30
0.0
 10
301.609910
 20
-43.439315
 30
0.0
 10
301.600550
 20
-43.478715
 30
0.0
 10
301.590230
 20
-43.517875
 30
0.0
 10
301.578950
 20
-43.556765
 30
0.0
 10
301.566720
 20
-43.595365
 30
0.0
 10
301.553550
 20
-43.633665
 30
0.0
 10
301.539440
 20
-43.671625
 30
0.0
 10
301.524400
 20
-43.709225
 30
0.0
 10
301.508450
 20
-43.746445
 30
0.0
 10
301.491580
 20
-43.783265
 30
0.0
 10
301.473820
 20
-43.819655
 30
0.0
 10
301.455170
 20
-43.855595
 30
0.0
 10
301.435640
 20
-43.891075
 30
0.0
 10
301.415250
 20
-43.926065
 30
0.0
 10
301.394010
 20
-43.960545
 30
0.0
 10
301.371920
 20
-43.994485
 30
0.0
 10
301.349010
 20
-44.027875
 30
0.0
 10
301.325290
 20
-44.060695
 30
0.0
 10
301.300770
 20
-44.092925
 30
0.0
 10
301.275470
 20
-44.124545
 30
0.0
 10
301.249390
 20
-44.155535
 30
0.0
 10
301.222570
 20
-44.185865
 30
0.0
 10
301.195010
 20
-44.215535
 30
0.0
 10
301.166730
 20
-44.244525
 30
0.0
 10
301.137740
 20
-44.272805
 30
0.0
 10
301.108070
 20
-44.300365
 30
0.0
 10
301.077740
 20
-44.327185
 30
0.0
 10
301.046750
 20
-44.353265
 30
0.0
 10
301.015130
 20
-44.378565
 30
0.0
 10
300.982900
 20
-44.403085
 30
0.0
 10
300.950080
 20
-44.426805
 30
0.0
 10
300.916690
 20
-44.449715
 30
0.0
 10
300.882750
 20
-44.471805
 30
0.0
 10
300.848270
 20
-44.493045
 30
0.0
 10
300.813280
 20
-44.513435
 30
0.0
 10
300.777800
 20
-44.532965
 30
0.0
 10
300.741860
 20
-44.551615
 30
0.0
 10
300.705470
 20
-44.569375
 30
0.0
 10
300.668650
 20
-44.586245
 30
0.0
 10
300.631430
 20
-44.602195
 30
0.0
 10
300.593830
 20
-44.617235
 30
0.0
 10
300.555870
 20
-44.631345
 30
0.0
 10
300.517570
 20
-44.644515
 30
0.0
 10
300.478970
 20
-44.656745
 30
0.0
 10
300.440080
 20
-44.668025
 30
0.0
 10
300.400920
 20
-44.678345
 30
0.0
 10
300.361520
 20
-44.687705
 30
0.0
 10
300.321900
 20
-44.696095
 30
0.0
 10
300.282090
 20
-44.703505
 30
0.0
 10
300.242110
 20
-44.709935
 30
0.0
 10
300.201980
 20
-44.715385
 30
0.0
 10
300.161730
 20
-44.719845
 30
0.0
 10
300.121380
 20
-44.723325
 30
0.0
 10
300.080960
 20
-44.725805
 30
0.0
 10
300.040490
 20
-44.727295
 30
0.0
 10
300.000000
 20
-44.727795
 30
0.0
 10
299.959510
 20
-44.727295
 30
0.0
 10
299.919040
 20
-44.725805
 30
0.0
 10
299.878620
 20
-44.723325
 30
0.0
 10
299.838270
 20
-44.719845
 30
0.0
 10
299.798020
 20
-44.715385
 30
0.0
 10
299.757890
 20
-44.709935
 30
0.0
 10
299.717910
 20
-44.703505
 30
0.0
 10
299.678100
 20
-44.696095
 30
0.0
 10
299.638480
 20
-44.687705
 30
0.0
 10
299.599080
 20
-44.678345
 30
0.0
 10
299.559920
 20
-44.668025
 30
0.0
 10
299.521030
 20
-44.656745
 30
0.0
 10
299.482430
 20
-44.644515
 30
0.0
 10
299.444130
 20
-44.631345
 30
0.0
 10
299.406170
 20
-44.617235
 30
0.0
 10
299.368570
 20
-44.602195
 30
0.0
 10
299.331350
 20
-44.586245
 30
0.0
 10
299.294530
 20
-44.569375
 30
0.0
 10
299.258140
 20
-44.551615
 30
0.0
 10
299.222200
 20
-44.532965
 30
0.0
 10
299.186720
 20
-44.513435
 30
0.0
 10
299.151730
 20
-44.493045
 30
0.0
 10
299.117250
 20
-44.471805
 30
0.0
 10
299.083310
 20
-44.449715
 30
0.0
 10
299.049920
 20
-44.426805
 30
0.0
 10
299.017100
 20
-44.403085
 30
0.0
 10
298.984870
 20
-44.378565
 30
0.0
 10
298.953250
 20
-44.353265
 30
0.0
 10
298.922260
 20
-44.327185
 30
0.0
 10
298.891930
 20
-44.300365
 30
0.0
 10
298.862260
 20
-44.272805
 30
0.0
 10
298.833270
 20
-44.244525
 30
0.0
 10
298.804990
 20
-44.215535
 30
0.0
 10
298.777430
 20
-44.185865
 30
0.0
 10
298.750610
 20
-44.155535
 30
0.0
 10
298.724530
 20
-44.124545
 30
0.0
 10
298.699230
 20
-44.092925
 30
0.0
 10
298.674710
 20
-44.060695
 30
0.0
 10
298.650990
 20
-44.027875
 30
0.0
 10
298.628080
 20
-43.994485
 30
0.0
 10
298.605990
 20
-43.960545
 30
0.0
 10
298.584750
 20
-43.926065
 30
0.0
 10
298.564360
 20
-43.891075
 30
0.0
 10
298.544830
 20
-43.855595
 30
0.0
 10
298.526180
 20
-43.819655
 30
0.0
 10
298.508420
 20
-43.783265
 30
0.0
 10
298.491550
 20
-43.746445
 30
0.0
 10
298.475600
 20
-43.709225
 30
0.0
 10
298.460560
 20
-43.671625
 30
0.0
 10
298.446450
 20
-43.633665
 30
0.0
 10
298.433280
 20
-43.595365
 30
0.0
 10
298.421050
 20
-43.556765
 30
0.0
 10
298.409770
 20
-43.517875
 30
0.0
 10
298.399450
 20
-43.478715
 30
0.0
 10
298.390090
 20
-43.439315
 30
0.0
 10
298.381700
 20
-43.399695
 30
0.0
 10
298.374290
 20
-43.359885
 30
0.0
 10
298.367860
 20
-43.319905
 30
0.0
 10
298.362410
 20
-43.279775
 30
0.0
 10
298.357950
 20
-43.239525
 30
0.0
 10
298.354470
 20
-43.199175
 30
0.0
 10
298.351990
 20
-43.158755
 30
0.0
 10
298.350500
 20
-43.118285
 30
0.0
  0
ENDSEC
  0
SECTION
  2
OBJECTS
  0
DICTIONARY
  5
C
330
0
100
AcDbDictionary
  3
ACAD_GROUP
350
D
  3
ACAD_MLINESTYLE
350
17
  0
DICTIONARY
  5
D
330
C
100
AcDbDictionary
  0
DICTIONARY
  5
1A
330
C
100
AcDbDictionary
  0
DICTIONARY
  5
17
330
C
100
AcDbDictionary
  3
STANDARD
350
18
  0
DICTIONARY
  5
19
330
C
100
AcDbDictionary
  0
ENDSEC
  0
EOF
